<svg width="243" height="274" viewBox="0 0 243 274" fill="none" xmlns="http://www.w3.org/2000/svg">
<path d="M178.583 256.565C177.938 257.026 177.201 257.487 176.556 257.948C175.819 258.408 175.173 258.869 174.436 259.238C173.791 259.606 173.238 259.975 172.593 260.344C172.501 260.436 172.409 260.436 172.317 260.528C170.197 261.818 167.985 263.016 165.773 264.122C165.128 264.491 164.391 264.859 163.746 265.136C163.746 265.136 163.654 265.228 163.562 265.228C162.824 265.597 162.087 265.965 161.35 266.334C159.875 267.071 158.309 267.716 156.834 268.361C156.097 268.73 155.268 269.006 154.53 269.283C153.793 269.559 152.964 269.928 152.226 270.204C151.489 270.481 150.66 270.85 149.922 271.126C149.922 271.126 149.922 271.126 149.83 271.126C149.093 271.402 148.264 271.679 147.526 271.955C145.868 272.508 144.117 273.061 142.458 273.614C141.905 273.799 141.26 273.983 140.707 274.167C138.956 274.72 137.205 275.181 135.454 275.55C134.809 275.734 134.164 275.826 133.426 276.01C131.768 276.379 130.017 276.748 128.358 277.116C127.989 277.208 127.713 277.208 127.344 277.3C126.791 277.393 126.146 277.485 125.593 277.577C124.764 277.669 124.026 277.853 123.197 277.946C122.828 278.038 122.46 278.038 122.091 278.13C121.63 278.222 121.077 278.314 120.524 278.314C119.05 278.499 117.483 278.683 116.009 278.867C115.548 278.959 114.995 278.959 114.534 279.051H114.442C113.797 279.144 113.152 279.144 112.507 279.236C111.862 279.328 111.217 279.328 110.571 279.328C110.203 279.328 109.742 279.42 109.373 279.42C108.636 279.42 107.991 279.512 107.346 279.512C106.424 279.512 105.595 279.604 104.673 279.604C103.752 279.604 102.922 279.604 102.001 279.604C101.356 279.604 100.711 279.604 100.066 279.604C61.1754 279.051 26.2479 262.555 1.27343 236.383C1.27343 236.383 1.27343 236.291 1.18127 236.291C-1.58343 233.802 0.812647 220.532 11.9636 212.146C25.9715 201.548 59.5166 194.912 59.5166 194.912C59.5166 194.912 72.5107 192.793 120.709 202.838C148.909 208.736 170.381 217.306 182.362 240.53C184.85 245.322 187.338 252.695 178.583 256.565Z" fill="white"/>
<path d="M120.985 201.824C138.679 205.418 157.571 209.289 172.132 220.992C177.016 224.955 180.242 230.761 182.914 236.383C184.204 239.147 185.495 242.004 186.508 245.045C187.061 247.073 187.891 249.377 187.43 251.773C187.338 252.418 186.785 253.247 186.324 253.708C184.204 255.828 181.9 257.118 179.597 258.777C166.049 268.177 150.475 274.812 134.348 278.314C98.4064 286.147 59.5161 280.065 27.9063 261.173C17.4005 254.814 7.72399 247.073 -0.57013 237.949C-1.4917 236.843 -1.4917 235 -1.4917 233.802C-1.39954 231.038 -0.662289 228.365 0.259279 225.877C2.47104 220.163 5.32791 214.449 10.2122 210.487C13.7142 208.09 17.4926 206.063 21.3632 204.404C33.5279 199.243 46.3377 195.649 59.5161 194.175C60.622 194.083 60.8063 195.649 59.7005 195.834C47.075 198.414 34.5416 202.285 22.8377 207.538C18.5985 209.657 14.0828 211.5 10.673 214.818C7.44752 218.32 5.1436 222.651 3.30046 227.075C2.10242 229.747 1.27301 233.987 1.64163 236.106C7.44752 243.018 14.2671 249.1 21.6397 254.353C62.0044 282.553 123.289 284.396 166.234 260.896C170.104 258.777 173.883 256.381 177.477 253.892C179.228 252.694 181.071 251.681 182.453 250.298C182.546 250.206 182.453 250.298 182.453 250.391C182.453 250.483 182.361 250.575 182.361 250.575C182.453 249.469 182.085 247.994 181.624 246.52C179.965 241.175 177.293 235.553 174.436 230.669C169.92 223.389 162.271 218.781 154.53 215.094C149.185 212.606 143.563 210.671 137.849 208.828C132.136 206.985 126.33 205.418 120.524 204.036C119.049 203.667 119.51 201.547 120.985 201.824Z" fill="black"/>
<path d="M209.179 313.702H-23.8857C-23.8857 313.702 -10.1544 284.765 -4.07201 251.773C0.167204 228.918 3.30054 215.555 15.1888 208.182C23.5751 203.022 47.1672 195.557 63.9398 193.161C70.7594 192.239 84.3064 191.226 96.0104 192.147C104.857 193.253 123.104 198.414 130.108 200.349C140.614 203.298 163.377 212.053 173.422 221.269C177.385 224.955 186.785 243.386 192.867 270.112C199.871 300.524 209.179 313.702 209.179 313.702Z" fill="white"/>
<path d="M211.298 314.808C141.904 315.361 44.5867 316.651 -23.7937 316.559C-25.8212 316.651 -27.2957 314.347 -26.3741 312.504C-24.7153 309.002 -23.1486 305.408 -21.6741 301.722C-15.0388 285.318 -9.41726 268.453 -6.00746 251.128C-3.24275 237.58 -1.03099 222.467 9.19843 212.237C12.0553 209.38 15.5572 207.169 19.1514 205.51C26.4318 202.192 33.8965 199.428 41.4533 197.031C56.6592 192.055 72.7867 189.935 88.822 190.212C96.8396 190.212 104.949 191.502 112.783 193.345C116.193 193.99 120.985 195.465 124.302 196.386L127.159 197.216C127.712 197.492 127.896 198.598 128.173 199.151C128.357 199.52 128.542 199.612 128.818 199.704C129.279 199.796 130.016 199.151 130.477 199.335C139.785 202.1 148.724 206.155 157.295 210.671C163.377 214.08 169.644 217.398 174.62 222.375C178.951 227.904 182.453 234.078 185.679 240.345C193.512 256.473 195.724 274.72 201.714 291.4C203.926 297.759 206.506 304.118 209.64 310.108L210.285 311.306L210.653 311.951L210.838 312.228L210.93 312.412C211.483 312.78 211.667 314.163 211.298 314.808ZM207.059 312.596C206.598 313.149 206.691 314.347 207.059 314.808L206.967 314.624L206.783 314.255L206.414 313.61C202.636 306.975 199.963 299.879 197.567 292.69C191.3 273.89 189.273 253.8 180.426 235.922C178.214 231.406 176.002 226.798 172.685 223.02C170.749 221.269 168.63 219.794 166.418 218.412C156.465 212.329 145.314 208.182 134.347 204.22C133.426 203.851 131.122 203.114 130.2 202.837C129.463 202.653 129.187 202.561 129.002 201.639C128.818 200.902 128.634 199.98 127.804 200.349C127.344 200.533 126.514 201.639 125.961 201.547C124.118 201.086 119.234 199.796 117.391 199.335C110.295 197.492 103.291 195.188 96.1024 193.806C73.9847 191.871 51.8671 195.741 30.7631 202.284C23.4827 204.773 15.4651 207.077 10.2122 213.067C1.08862 224.402 -0.478043 243.478 -3.33491 257.578C-7.29765 277.208 -13.2878 296.284 -21.3055 314.808L-23.8859 310.753C42.8357 311.029 139.416 311.859 207.059 312.596Z" fill="black"/>
<path d="M61.0822 202.469C58.2253 202.745 55.1841 203.39 52.6038 204.865C52.3273 205.049 51.9587 204.588 52.2351 204.404C54.6312 202.284 57.6724 201.086 60.6214 200.165C61.2665 199.98 61.9116 200.349 62.0037 200.994C62.2802 201.731 61.8194 202.469 61.0822 202.469Z" fill="black"/>
<path d="M68.4552 214.265C65.1376 215.002 61.9121 216.569 59.2396 218.781C57.1199 219.149 62.465 214.818 62.8337 214.634C64.4003 213.528 65.967 212.698 67.8101 211.961C68.3631 211.777 69.1003 212.053 69.2847 212.606C69.6533 213.436 69.1925 214.173 68.4552 214.265Z" fill="black"/>
<path d="M80.3425 226.061C77.67 228.181 75.3661 231.037 73.8916 234.171C73.7994 234.355 73.5229 234.447 73.3386 234.355C73.1543 234.263 73.0622 234.079 73.1543 233.894C73.7073 232.143 74.4445 230.392 75.4582 228.826C76.472 227.167 77.5778 225.692 78.868 224.31C79.3288 223.849 80.0661 223.849 80.5269 224.31C80.9876 224.771 80.9876 225.692 80.3425 226.061Z" fill="black"/>
<path d="M100.249 235.184C98.6824 238.502 97.4843 242.096 97.3 245.782C97.3 246.428 96.1941 246.428 96.1941 245.782C96.0098 242.833 96.4706 239.884 97.3 237.12C97.7608 236.014 97.853 233.065 99.6961 233.618C100.249 233.802 100.526 234.539 100.249 235.184Z" fill="black"/>
<path d="M121.353 235.553C121.906 236.843 126.145 247.165 124.117 247.257C123.841 247.257 123.564 247.073 123.564 246.796C123.472 245.875 123.196 245.045 122.827 244.124C121.906 241.543 120.615 238.963 119.233 236.567C118.588 235.185 120.708 234.079 121.353 235.553Z" fill="black"/>
<path d="M130.107 215.186C133.517 215.831 136.374 217.859 138.493 220.439C138.586 220.531 138.586 220.808 138.493 220.9C138.401 220.992 138.217 220.992 138.033 220.9C135.821 218.964 132.872 217.582 129.923 217.49C128.172 217.398 128.448 214.91 130.107 215.186Z" fill="black"/>
<path d="M126.789 204.404C129.646 205.141 132.319 206.339 134.438 208.367C134.623 208.551 134.623 208.827 134.438 209.012C134.254 209.196 134.07 209.196 133.885 209.104C131.674 207.629 129.001 206.892 126.421 206.708C124.762 206.523 125.131 204.035 126.789 204.404Z" fill="black"/>
<path d="M130.108 228.18C132.688 230.3 135.269 232.512 136.927 235.461C137.02 235.553 136.927 235.737 136.835 235.829C136.743 235.921 136.559 235.829 136.467 235.737C134.439 233.249 131.675 231.59 128.91 230.023C127.435 229.286 128.726 227.166 130.108 228.18Z" fill="black"/>
<path d="M129.647 226.337C127.711 235.829 115.178 241.543 94.074 232.972C72.1407 224.125 62.6485 203.022 60.2524 196.755C73.2466 172.425 64.2152 155.561 64.2152 155.561C94.1662 152.98 120.339 188 120.339 188L124.394 205.325C124.762 206.8 125.5 208.09 126.605 209.012C128.541 212.422 130.845 220.255 129.647 226.337Z" fill="white"/>
<path d="M59.7918 197.032C61.5428 194.359 62.6487 191.226 63.3859 188.185C64.7683 181.826 65.2291 175.375 65.3212 168.924V166.528C65.0448 164.132 64.2153 161.643 63.2938 159.432C62.0957 156.483 66.4271 154.64 67.8095 157.589C67.9938 157.957 67.9938 158.602 67.9938 158.971C68.2702 171.504 68.8232 187.632 60.8977 198.045C60.3448 198.598 59.2389 197.769 59.7918 197.032Z" fill="black"/>
<path d="M121.352 187.816C122.734 188.645 123.195 189.751 123.379 190.857C123.932 193.069 123.748 195.465 124.301 197.769C124.762 199.981 126.144 202.1 126.513 204.404C126.973 206.8 128.356 211.869 128.909 214.357C129.093 214.91 128.724 215.555 128.079 215.647C127.711 215.739 127.434 215.647 127.158 215.463C125.96 214.449 125.407 213.435 124.67 212.145C123.472 209.933 122.642 207.906 121.905 205.418C121.26 203.206 121.536 200.81 120.983 198.506C120.522 196.294 119.232 194.175 118.771 191.871C118.495 190.765 118.403 189.567 119.232 188.184C119.785 187.631 120.707 187.447 121.352 187.816Z" fill="black"/>
<path d="M127.988 212.145C110.386 211.224 96.0098 205.694 82.002 180.72C93.798 191.133 107.714 195.096 122.367 196.939L124.302 205.418C124.671 206.892 126.882 211.224 127.988 212.145Z" fill="black"/>
<path d="M127.251 208.735C130.384 214.633 132.228 222.006 130.292 228.549C128.818 233.157 124.579 236.567 119.971 237.857C109.28 240.714 96.9315 236.198 87.4393 231.129C75.7354 224.586 67.0726 213.62 61.5432 201.639C61.1746 200.718 62.4648 199.98 63.0177 200.902C64.953 204.773 67.1648 208.551 69.653 211.961C72.1413 215.463 74.9981 218.688 78.2236 221.545C87.6236 230.024 100.341 235.277 113.059 235.277C126.145 234.908 131.122 227.996 128.08 215.278C127.62 213.251 126.882 211.131 125.869 209.38C125.316 208.643 126.698 207.814 127.251 208.735Z" fill="black"/>
<path d="M162.916 98.0549C164.575 105.796 165.404 112.063 160.888 132.706C156.465 153.257 165.036 173.992 143.287 192.884C128.634 205.602 103.014 207.998 82.5552 194.082C75.6434 189.382 73.8003 167.449 68.363 159.063C66.0591 155.561 64.6767 161.182 59.4238 155.376C52.1434 147.451 43.3885 131.508 47.7199 103.308C54.7238 57.598 90.9414 52.2529 117.759 57.3215C144.669 62.3902 158.492 77.6882 162.916 98.0549Z" fill="white"/>
<path d="M63.939 163.486C61.8193 159.984 59.1468 156.943 56.6586 153.718C52.9723 148.741 50.2076 143.027 48.3644 137.129C40.439 111.878 44.6782 78.9783 68.086 63.2195C89.7429 48.5666 131.121 52.9901 150.106 70.6842C159.598 79.2548 164.851 91.696 165.957 104.229C166.51 112.616 164.482 120.725 162.731 128.835C160.704 136.761 160.243 144.686 160.243 152.888C160.151 161.09 159.782 169.661 156.649 177.402C151.857 189.198 141.812 198.782 129.739 202.837C113.888 208.367 95.1801 205.233 82.186 194.635C81.6331 194.174 82.186 193.437 82.8311 193.714C99.8801 203.39 122.274 205.049 138.863 193.898C148.723 187.263 155.543 176.757 157.11 164.961C158.4 156.943 158.031 148.833 158.768 140.723C159.045 137.129 160.059 132.153 160.796 128.559C161.902 122.569 162.639 116.578 162.547 110.588C162.455 104.69 161.164 98.8842 159.413 93.2627C153.331 73.2646 135.913 61.4685 115.823 58.243C85.7801 52.9901 59.5154 64.1411 51.6821 95.3823C48.2723 110.68 45.5997 127.545 52.0507 142.382C54.3546 148.004 58.1331 152.796 62.4644 156.943L66.7037 161.459C68.5468 163.302 65.4135 165.698 63.939 163.486Z" fill="black"/>
<path d="M74.8132 134.18C74.8132 134.18 71.9563 120.357 58.5014 122.016C46.8896 123.49 42.8347 151.322 69.1916 159.063" fill="white"/>
<path d="M67.9937 146.99C65.8741 145.792 64.3996 143.765 64.3075 141.276C64.3996 139.433 64.6761 137.314 64.2153 135.47C63.9388 133.719 62.0957 133.259 60.7133 133.351C59.2388 133.627 58.3173 135.47 58.0408 136.945C58.0408 137.037 57.9486 137.314 57.9486 137.406C57.8565 137.867 57.1192 137.867 56.9349 137.406C55.7369 133.812 58.4094 129.849 62.28 130.31C67.7173 130.678 68.4545 136.392 67.4408 140.723C66.8879 142.567 67.6251 144.225 68.6388 145.792L68.8231 146.068C69.2839 146.621 68.5467 147.359 67.9937 146.99Z" fill="black"/>
<path d="M141.72 124.412C143.102 130.955 145.682 137.037 148.908 142.751C151.765 149.755 144.392 156.39 137.849 156.113C137.112 156.113 137.02 155.1 137.665 154.915C141.812 153.625 145.59 150.861 146.235 146.621C146.512 145.331 146.143 144.225 145.498 143.119C142.457 137.406 140.614 130.862 141.075 124.412C141.075 123.951 141.72 123.951 141.72 124.412Z" fill="black"/>
<path d="M74.3529 134.273C72.2333 128.835 67.6254 123.675 61.4509 123.767C60.898 123.675 59.9764 123.859 59.4235 123.859C57.8568 123.951 56.5666 124.504 55.3686 125.61C49.4705 131.508 50.4843 141.922 55.2764 148.465C56.9352 150.769 59.0548 152.796 61.4509 154.455C63.847 156.114 66.5196 157.404 69.3764 158.51C70.0215 158.694 69.745 159.708 69.0999 159.616C62.9254 158.326 57.0274 155.284 52.9725 150.216C46.7058 142.659 45.4156 130.033 52.8803 122.661C54.5392 121.186 56.8431 120.08 59.147 120.08C59.8843 120.08 60.9901 119.896 61.7274 120.08C65.598 120.265 69.2843 122.2 71.6803 125.241C73.7999 127.822 74.998 130.955 75.3666 134.088C75.3666 134.641 74.5372 134.826 74.3529 134.273Z" fill="black"/>
<path d="M135.545 164.868C133.978 165.974 131.674 165.053 130.015 165.79C128.817 166.159 126.882 167.817 124.117 167.633C121.905 167.449 120.8 166.343 118.956 165.514C117.021 164.868 114.994 163.67 113.703 162.104C113.427 161.827 113.427 161.459 113.703 161.182C114.072 160.814 114.441 161.09 114.809 161.274C115.639 161.735 116.284 162.104 116.929 162.288C117.574 162.472 118.219 162.288 119.233 162.288C120.247 162.196 121.721 162.657 122.643 163.394C123.288 163.855 124.025 164.131 124.578 164.223C126.052 164.5 127.896 163.302 129.462 163.117C130.568 162.933 131.766 163.025 132.688 163.302C133.609 163.578 134.254 163.763 134.992 163.578C135.821 163.394 136.282 164.5 135.545 164.868Z" fill="black"/>
<path d="M120.892 114.643C122.919 114.92 124.486 112.8 123.749 110.773C123.38 109.667 122.735 108.653 121.721 108.008C118.588 106.073 106.884 105.889 100.709 110.312C95.18 114.367 111.676 113.353 120.892 114.643Z" fill="black"/>
<path d="M146.419 115.657C144.76 115.657 143.746 113.537 144.576 111.786C145.036 110.865 145.681 110.035 146.603 109.574C149.46 108.192 157.109 109.021 160.519 113.721C163.56 117.868 154.068 115.565 146.419 115.657Z" fill="black"/>
<path d="M117.851 126.808C114.626 129.665 109.649 129.665 105.779 128.19C105.133 127.914 101.447 126.255 102.184 125.333C102.277 125.241 102.461 125.149 102.553 125.149C105.133 125.241 107.53 125.518 110.018 125.702C112.506 125.886 114.718 125.794 117.298 125.702C117.943 125.702 118.312 126.439 117.851 126.808Z" fill="black"/>
<path d="M154.252 128.375C151.303 131.785 145.313 131.324 142.548 128.006C142.271 127.73 142.548 127.177 142.916 127.269C143.93 127.361 144.852 127.545 145.773 127.638C148.538 128.098 150.842 128.006 153.791 127.914C154.252 127.73 154.436 128.191 154.252 128.375Z" fill="black"/>
<path d="M174.804 104.229C172.223 112.247 166.049 118.974 162.086 123.49C163.007 119.159 162.178 116.578 162.362 113.537C162.639 109.39 164.113 104.782 163.837 102.939C163.653 101.28 163.284 99.7137 162.915 98.0548C162.455 96.0274 161.902 94.0921 161.257 92.1568C146.788 106.257 121.998 92.3411 121.998 92.3411C121.998 92.3411 116.745 96.6725 107.529 95.6587C97.6683 94.645 94.9957 88.5627 94.9957 88.5627C92.3232 107.178 74.7212 100.082 77.9467 118.606C78.8683 123.674 78.8683 128.559 74.5369 133.627C73.7996 131.047 70.2055 120.541 58.4094 122.016C47.2585 123.398 43.0192 149.202 66.0585 158.049C65.782 166.62 66.7036 178.231 65.782 175.19C59.331 155.284 46.429 158.418 40.3467 143.396C37.4898 136.208 37.9506 129.849 39.4251 125.149C40.8996 120.633 40.8075 115.749 39.333 111.233C37.6741 105.98 36.3839 98.0548 39.4251 88.4705C44.5859 72.0666 55.6447 68.2882 58.5016 66.3529C61.3585 64.4176 59.9761 46.7235 79.9742 41.194C95.9173 36.7705 107.898 46.0784 111.4 45.4333C114.902 44.7882 139.415 28.6607 158.308 43.8666C176.555 58.6117 169.735 76.0293 169.735 76.0293C169.735 76.0293 181.07 84.7842 174.804 104.229Z" fill="black"/>
<path d="M64.4923 137.037C64.4923 137.037 57.1197 135.931 57.6727 146.253C57.9492 151.506 57.9492 154.363 57.857 155.837C57.7648 156.851 58.4099 157.773 59.3315 158.141C60.4374 158.602 61.6354 158.141 62.1884 157.035C63.0178 155.561 63.9394 153.533 63.9394 151.875C63.9394 149.11 66.8884 146.622 66.8884 146.622C66.8884 146.622 64.2158 144.318 64.4923 137.037Z" fill="white"/>
<path d="M64.2158 137.314C64.2158 137.406 64.308 137.498 64.4001 137.498C64.4001 137.498 64.4001 137.498 64.308 137.498H64.1237C59.7001 137.867 58.3178 141.737 58.5021 145.7C58.5942 148.28 58.7786 150.861 58.6864 153.349C58.8707 154.731 58.0413 156.574 59.4237 157.312C60.2531 157.773 61.3589 157.404 61.7276 156.482C62.557 154.824 63.3864 153.165 63.3864 151.322C63.755 149.202 65.1374 147.543 66.6119 146.253V146.99C64.6766 144.963 64.2158 142.198 63.9393 139.618C64.0315 138.973 64.0315 137.959 64.2158 137.314ZM64.8609 136.669C65.1374 139.249 65.1374 141.922 66.2433 144.225C66.5197 144.871 66.9805 145.608 67.5335 146.069C67.9021 146.345 67.9021 146.898 67.5335 147.174C66.2433 148.373 65.1374 149.847 64.9531 151.506C64.9531 153.533 64.1237 155.469 63.2021 157.22C62.4648 158.786 60.3452 159.616 58.7786 158.694C57.7648 158.141 57.0276 157.035 57.0276 155.837C57.0276 154.916 57.1197 154.178 57.1197 153.257C57.1197 150.676 56.9354 148.188 56.8433 145.608C56.8433 143.949 56.9354 142.014 57.6727 140.355C58.5942 137.774 61.4511 136.024 64.2158 136.484C64.4923 136.484 64.7688 136.576 64.8609 136.669Z" fill="black"/>
<path d="M63.2943 246.151C66.3355 232.88 62.3728 217.951 58.963 204.68C57.5806 199.428 56.1982 194.451 55.5532 190.12C54.3551 182.839 55.1845 175.928 58.1335 169.477C61.7277 161.459 61.1747 154.639 61.1747 154.363L59.3316 154.547C59.3316 154.639 59.8845 161.275 56.4747 168.739C53.4335 175.467 52.512 182.747 53.71 190.396C54.4473 194.82 55.7375 199.888 57.1198 205.141C60.5296 218.135 64.4002 232.88 61.4512 245.69C59.7924 252.786 63.0179 264.398 67.6257 276.01C68.363 276.102 69.0081 276.194 69.7453 276.286C65.0453 264.675 61.7277 252.971 63.2943 246.151Z" fill="black"/>
<path d="M57.9492 151.598C58.0413 153.625 57.9492 155.008 57.9492 155.837C57.857 156.851 58.5021 157.773 59.4237 158.141C60.5296 158.602 61.7276 158.141 62.2806 157.035C63.11 155.561 64.0315 153.533 64.0315 151.874C64.0315 151.782 64.0315 151.598 64.0315 151.506C62.1884 152.243 59.9766 152.796 57.9492 151.598Z" fill="white"/>
<path d="M58.2254 151.967C58.3176 153.257 58.4097 154.455 58.4097 155.745C58.3176 156.298 58.5019 156.851 58.8705 157.312C60.0686 158.51 61.7274 157.773 62.1882 156.298C62.9254 154.824 63.5705 153.257 63.5705 151.598L64.2156 152.059C62.1882 152.427 60.0686 152.98 58.1333 152.151C58.1333 152.151 58.2254 152.059 58.2254 151.967ZM57.7646 151.137C57.949 151.137 58.3176 151.229 58.5019 151.414C60.1607 152.612 62.2803 152.059 63.9391 151.137C64.2156 150.953 64.6764 151.229 64.5842 151.598C64.4921 153.718 63.6627 155.745 62.5568 157.588C61.5431 158.971 59.4235 159.063 58.2254 157.865C57.6725 157.312 57.396 156.39 57.4882 155.653C57.4882 154.086 57.6725 152.612 57.7646 151.137Z" fill="black"/>
<path d="M144.761 212.883C146.327 202.008 144.853 194.267 144.3 191.963C144.023 192.147 143.839 192.424 143.563 192.608C143.286 192.884 143.01 193.069 142.733 193.345C143.286 196.294 144.3 203.298 142.917 212.606C142.272 216.937 142.088 223.757 141.996 231.683C141.812 239.332 139.415 258.408 136.559 276.471C137.204 276.286 137.849 276.102 138.494 276.01C141.351 258.132 143.655 239.424 143.839 231.775C144.023 223.849 144.115 217.122 144.761 212.883Z" fill="black"/>
</svg>
