<svg width="240" height="279" viewBox="0 0 240 279" fill="none" xmlns="http://www.w3.org/2000/svg">
<path d="M172.323 245.647C171.705 246.088 170.999 246.529 170.382 246.971C169.676 247.412 169.058 247.853 168.352 248.206C167.735 248.559 167.205 248.912 166.588 249.265C166.499 249.353 166.411 249.353 166.323 249.441C164.294 250.677 162.176 251.824 160.058 252.882C159.441 253.235 158.735 253.588 158.117 253.853C158.117 253.853 158.029 253.941 157.941 253.941C157.235 254.294 156.529 254.647 155.823 255C154.411 255.706 152.911 256.324 151.499 256.941C150.794 257.294 149.999 257.559 149.294 257.824C148.588 258.088 147.794 258.441 147.088 258.706C146.382 258.971 145.588 259.324 144.882 259.588C144.882 259.588 144.882 259.588 144.794 259.588C144.088 259.853 143.294 260.118 142.588 260.382C140.999 260.912 139.323 261.441 137.735 261.971C137.205 262.147 136.588 262.324 136.058 262.5C134.382 263.029 132.705 263.471 131.029 263.824C130.411 264 129.794 264.088 129.088 264.265C127.499 264.618 125.823 264.971 124.235 265.324C123.882 265.412 123.617 265.412 123.264 265.5C122.735 265.588 122.117 265.677 121.588 265.765C120.794 265.853 120.088 266.029 119.294 266.118C118.941 266.206 118.588 266.206 118.235 266.294C117.794 266.382 117.264 266.471 116.735 266.471C115.323 266.647 113.823 266.824 112.411 267C111.97 267.088 111.441 267.088 111 267.177H110.911C110.294 267.265 109.676 267.265 109.058 267.353C108.441 267.441 107.823 267.441 107.205 267.441C106.852 267.441 106.411 267.529 106.058 267.529C105.352 267.529 104.735 267.618 104.117 267.618C103.235 267.618 102.441 267.706 101.558 267.706C100.676 267.706 99.8819 267.706 98.9995 267.706C98.3819 267.706 97.7642 267.706 97.1466 267.706C59.9113 267.177 26.4701 251.382 2.55833 226.324C2.55833 226.324 2.55833 226.235 2.47009 226.235C-0.176967 223.853 2.11715 211.147 12.7936 203.118C26.2054 192.971 58.323 186.618 58.323 186.618C58.323 186.618 70.7642 184.588 116.911 194.206C143.911 199.853 164.47 208.059 175.941 230.294C178.323 234.882 180.705 241.941 172.323 245.647Z" fill="white"/>
<path d="M117.176 193.235C134.117 196.677 152.205 200.383 166.146 211.588C170.823 215.383 173.911 220.941 176.47 226.324C177.705 228.971 178.941 231.706 179.911 234.618C180.441 236.559 181.235 238.765 180.794 241.059C180.705 241.677 180.176 242.471 179.735 242.912C177.705 244.941 175.499 246.177 173.294 247.765C160.323 256.765 145.411 263.118 129.97 266.471C95.5582 273.971 58.3229 268.147 28.0582 250.059C17.9994 243.971 8.73466 236.559 0.793486 227.824C-0.0888672 226.765 -0.0888672 225 -0.0888672 223.853C-0.000631884 221.206 0.705248 218.647 1.5876 216.265C3.70525 210.794 6.44055 205.324 11.117 201.53C14.47 199.235 18.0876 197.294 21.7935 195.706C33.4405 190.765 45.7052 187.324 58.3229 185.912C59.3817 185.824 59.5582 187.324 58.4994 187.5C46.4111 189.971 34.4111 193.677 23.2052 198.706C19.1464 200.735 14.8229 202.5 11.5582 205.677C8.46996 209.03 6.26408 213.177 4.49937 217.412C3.35231 219.971 2.55819 224.03 2.91113 226.059C8.46996 232.677 14.9994 238.5 22.0582 243.53C60.7053 270.53 119.382 272.294 160.499 249.794C164.205 247.765 167.823 245.471 171.264 243.088C172.941 241.941 174.705 240.971 176.029 239.647C176.117 239.559 176.029 239.647 176.029 239.735C176.029 239.824 175.941 239.912 175.941 239.912C176.029 238.853 175.676 237.441 175.235 236.03C173.646 230.912 171.088 225.53 168.352 220.853C164.029 213.883 156.705 209.471 149.294 205.941C144.176 203.559 138.793 201.706 133.323 199.941C127.852 198.177 122.294 196.677 116.735 195.353C115.323 195 115.764 192.971 117.176 193.235Z" fill="black"/>
<path d="M201.618 300.353H-21.5293C-21.5293 300.353 -18.8822 261.882 -5.47047 232.677C-0.705765 222.353 3.00012 207.353 11.7354 200.559C21.7942 192.794 41.6472 187.941 48.706 186.53C53.9119 185.471 54.6178 186.441 58.2354 185.471C58.2354 185.912 58.3237 186.265 58.3237 186.706C58.3237 186.706 67.8531 215.03 92.6472 225.088C112.853 233.294 124.853 227.824 126.706 218.735C127.853 212.912 124.235 203.382 122.382 200.294C121.324 199.412 120.618 198.088 120.265 196.765L119.559 193.853C121.235 193.5 122.824 193.059 124.412 192.53C124.941 192.353 125.382 192.177 125.912 192C138.706 195.618 154.235 202.147 167.824 212.471C175.235 218.118 181.412 232.677 189 257.294C197.912 285.618 201.618 300.353 201.618 300.353Z" fill="black"/>
<path d="M133.941 214.147C133.677 211.677 133.235 209.471 132.794 207.529C130.941 198.882 125.383 191.294 125.383 191.294C125.383 191.294 111.441 181.677 89.9119 179.118C68.3825 176.559 57.8825 179.118 57.8825 179.118C56.2943 179.647 54.3531 180.706 52.5884 181.677C49.4119 183.529 46.8531 186.177 45.2649 189.441C45.2649 189.529 45.1766 189.529 45.1766 189.618C42.8825 196.235 54.7061 220.677 85.1472 234.353C116.559 248.471 136.059 231.971 133.941 214.147Z" fill="black"/>
<path d="M22.236 351.794C21.089 325.942 20.5596 298.677 20.2066 272.736C20.0302 262.677 19.589 252.53 22.0596 242.647C25.8537 226.147 37.3243 210.706 53.736 205.324L53.1184 205.942C54.9713 201.265 57.0008 196.059 61.5008 193.324C61.6772 193.236 61.7655 193.5 61.6772 193.589C58.589 195.706 56.9125 199.324 55.5007 202.765C54.9713 203.912 54.7066 205.324 54.1772 206.383C48.0007 208.677 42.5302 212.647 38.0302 217.324C33.5302 222.089 29.9125 227.736 27.5302 233.824C24.4419 241.5 23.1184 249.706 22.8537 257.912C22.6772 288.883 23.5596 321.618 22.236 351.794Z" fill="white"/>
<path d="M61.5008 351.794C59.7361 335.647 58.6773 319.059 58.5008 302.823C58.3243 287.912 58.7655 272.559 60.5302 257.735C61.5008 249.088 64.5891 229.323 71.0302 223.588L71.7361 223.059C72.1773 222.882 72.2655 222.706 72.8832 222.618L72.0008 223.5C72.442 220.147 73.6773 216.971 75.442 214.147C76.0597 213.265 76.6773 212.382 77.3832 211.5C77.4714 211.412 77.7361 211.5 77.5596 211.676C76.942 212.559 76.3244 213.441 75.8832 214.412C74.3832 217.235 73.3244 220.323 73.0596 223.5C73.0596 223.588 72.9714 223.588 72.9714 223.676C72.442 223.853 71.8244 224.294 71.3832 224.823C70.0596 226.235 69.1773 228.265 68.3832 230.029C67.1479 233.118 66.2655 236.471 65.5596 239.823C63.7949 248.382 62.8243 257.382 62.1185 266.118C61.1479 280.765 60.7949 296.294 60.7949 310.941L60.8832 319.147C60.8832 330 61.4126 340.941 61.6773 351.794C61.7655 351.882 61.5008 351.971 61.5008 351.794Z" fill="white"/>
<path d="M97.7653 351.794C97.8535 324.882 96.7064 297.882 96.6182 270.971C96.53 258.794 96.53 246.265 96.7947 234.088C97.5888 230.912 98.2064 227.559 98.4711 224.206C98.5594 223.147 98.5594 222 98.4711 220.853C98.4711 220.677 98.7358 220.677 98.7358 220.853C99.4417 225.265 98.9123 229.765 98.03 234.177C98.3829 243.794 98.7358 253.765 98.9123 263.559C99.53 285.618 99.7064 307.677 99.177 329.735C99.0888 333.971 98.8241 340.235 98.5594 344.471C98.3829 346.941 98.1182 349.324 97.9417 351.794C97.9417 351.882 97.8535 351.882 97.7653 351.882V351.794Z" fill="white"/>
<path d="M139.06 351.794C138.266 331.412 137.736 310.059 135.972 289.765C134.913 276.882 133.236 264.177 130.766 251.559C129.266 243.971 127.324 236.294 124.236 229.147C123.707 225.088 122.383 220.677 119.207 217.853C119.119 217.765 119.119 217.677 119.207 217.677C119.295 217.588 119.295 217.588 119.383 217.677C120.266 218.294 121.06 219.088 121.766 219.971C123.707 222.529 124.942 226.059 125.383 228.971C129.001 235.941 131.03 243.529 132.883 251.118C134.03 256.059 135.089 261.441 135.883 266.382C137.03 273.441 138.089 282.441 138.619 289.588C139.06 293.912 139.324 300.706 139.589 305.118C139.942 315.529 140.03 325.853 139.854 336.265L139.413 351.794C139.413 351.882 139.324 351.882 139.236 351.882C139.148 351.882 139.06 351.794 139.06 351.794Z" fill="white"/>
<path d="M172.235 351.706C174.44 327.53 173.558 303 170.117 279C169.235 272.735 167.911 266.206 166.499 260.03C164.823 253.941 162.793 247.765 160.058 242.118C158.117 237.794 155.558 233.647 152.999 229.677C149.47 224.647 144.97 219.441 140.117 215.647C137.646 213.618 134.999 211.677 132.176 210.265C130.764 208.412 129.882 206.559 127.852 204.794C126.264 203.294 124.323 202.059 122.117 201.971C122.029 201.971 121.94 201.882 121.94 201.794C121.94 201.706 122.029 201.706 122.029 201.706C123.176 201.618 124.323 201.971 125.382 202.412C128.47 203.912 130.764 206.647 132.617 209.471C144.882 215.206 154.587 226.853 161.029 238.853C163.587 243.971 165.882 249.265 167.47 254.735L168.882 259.412C173.117 276.882 174.793 294.882 175.058 312.794C175.146 325.853 174.44 338.912 172.411 351.794C172.411 351.882 172.323 351.882 172.235 351.882C172.235 351.882 172.235 351.794 172.235 351.706Z" fill="white"/>
<path d="M132.53 250.235C144.883 250.676 154.059 246.706 155.471 233.382C155.559 232.323 156.354 231.529 157.324 231.353C162.706 230.029 166.324 225.265 167.383 219.882C167.648 219 167.736 217.853 167.912 216.97C168.001 216 168.089 214.941 168.177 213.882C168.177 213.794 168.265 213.794 168.354 213.794C168.442 213.794 168.442 213.882 168.442 213.882C168.618 215.735 168.795 218.206 168.618 220.059C168.265 226.323 164.118 232.235 157.854 233.912L158.03 233.735C157.324 243.529 151.324 250.676 141.265 251.294C138.354 251.559 135.354 251.294 132.442 250.588C132.354 250.588 132.354 250.5 132.354 250.412C132.354 250.235 132.442 250.235 132.53 250.235Z" fill="white"/>
<path d="M9.26505 209.559C10.2356 214.588 13.1474 219.529 17.5592 222.176C17.9121 222.441 18.7062 222.794 19.0592 223.059C19.8533 223.412 20.7356 223.765 21.5298 224.029L23.2062 224.47C23.6474 224.647 24.4415 224.735 24.9709 224.823L26.7356 225.088C28.5003 225.353 31.2356 224.382 32.118 226.412C37.9415 238.765 49.3239 248.117 63.618 245.382C64.5003 245.294 65.3827 245.647 65.7356 246.441C66.5298 247.676 67.5886 249 68.5592 250.147C73.5886 256.147 81.1768 260.559 89.2062 258.882C92.3827 258.265 95.4709 256.941 98.2945 255.176C98.3827 255.088 98.4709 255.176 98.4709 255.176C86.0298 265.5 72.0886 260.029 63.618 247.676L63.8827 247.765C60.3533 248.382 56.7356 248.559 53.118 247.853C42.5298 245.912 34.4121 236.912 30.1768 227.117L30.3533 227.206C28.5003 227.117 26.4709 227.029 24.618 226.588C24.0886 226.5 23.2062 226.323 22.765 226.147C21.7062 225.882 20.118 225.265 19.1474 224.735L18.265 224.294L17.4709 223.765C17.118 223.5 16.2356 223.059 15.8827 222.706C11.8239 219.529 9.44152 214.5 8.91211 209.47C8.91211 209.382 9.00034 209.294 9.00034 209.294C9.26505 209.47 9.26505 209.47 9.26505 209.559Z" fill="white"/>
<path d="M129.53 239.559C140.118 236.736 145.324 230.559 143.736 219.442C143.648 218.736 143.824 218.03 144.266 217.589C147.177 214.147 147.971 209.471 147.53 205.059C147.442 203.647 146.913 201.618 146.648 200.206C146.648 200.118 146.648 200.03 146.736 200.03C146.824 200.03 146.824 200.03 146.913 200.118C147.618 201.618 148.324 203.206 148.766 204.794C149.648 208.059 149.648 211.589 148.589 214.765C148.06 216.353 147.266 217.942 146.207 219.265L146.295 219.089C147.795 227.03 145.148 235.236 137.118 238.324C134.736 239.294 132.177 239.824 129.618 239.912C129.354 239.824 129.354 239.559 129.53 239.559Z" fill="white"/>
<path d="M29.8235 196.147C28.4118 200.736 30 205.853 33.4412 209.118L33.8824 209.647L34.4118 210.089C35.4706 210.971 36.7059 211.765 37.8529 212.559L40.3235 213.883C40.8529 214.147 41.2059 214.677 41.2941 215.294C43.0588 221.912 48.4412 227.118 54.5294 229.941C58.4118 231.971 62.6471 232.941 66.8824 233.736C68.1177 234 68.4706 235.147 69.353 235.941C70.3235 236.912 71.3824 237.883 72.4412 238.765C78.8824 244.236 87.5294 247.147 96 246L98.2059 245.736C98.2941 245.736 98.3824 245.736 98.3824 245.824C98.3824 245.912 98.3824 245.912 98.2941 246C89.7353 248.647 80.2941 246.971 72.8824 241.853C70.6765 240.353 67.5882 237.794 66.353 236.118C60.4412 235.147 54.4412 233.383 49.5 229.941C44.7353 226.765 40.0588 220.765 39.4412 215.559C37.9412 214.677 35.7353 213.265 34.4118 212.206C34.1471 212.03 33 210.883 32.7353 210.618C32.2941 210.089 31.6765 209.471 31.3235 208.853C28.6765 205.147 27.7941 200.118 29.6471 195.883C29.6471 195.794 29.7353 195.794 29.8235 195.794C29.9118 195.971 29.9118 196.059 29.8235 196.147Z" fill="white"/>
<path d="M45.2647 189.53C45.0882 193.588 46.5882 197.647 49.2353 200.647C49.7647 201.353 50.6471 202.147 51.3529 202.765C51.6177 202.941 52.5 203.647 52.7647 203.824C53.6471 204.53 55.2353 204.883 55.3235 206.118C55.5882 208.059 56.5588 210.088 57.7059 211.677C61.3235 216.971 67.5882 219.794 73.6765 221.559C74.2059 221.736 74.5588 222 74.8235 222.441C80.2059 229.236 89.1176 232.765 97.6765 231.883C99.1765 231.971 100.5 232.765 102.088 233.03C105.441 233.912 109.147 234.353 112.588 234.088C117.176 233.912 121.412 231.971 123.706 228C124.147 227.383 124.765 227.294 125.294 226.853C127.765 225.177 129.794 222.883 131.029 220.147C132.618 216.883 132.265 213.177 131.382 209.824C131.559 208.412 131.824 206.824 131.735 205.236C131.647 200.824 129.882 196.5 127.059 193.059C126.882 192.971 127.147 192.706 127.235 192.883C131.647 197.206 133.676 203.647 132.794 209.736C135.618 217.059 132.353 225.088 125.471 229.324C123.353 233.471 117.794 236.383 112.853 236.559C108 237 102.176 235.941 98.0294 234.53C88.5882 235.5 78.7059 231.441 72.9706 223.765L73.0588 223.853C71.1176 223.236 68.4706 222.265 66.7059 221.383C66.2647 221.118 64.8529 220.412 64.4118 220.147C63.8824 219.794 62.7353 219.088 62.2941 218.736L60.9706 217.677C57.4412 214.765 54.6177 210.794 54 206.206L54.0882 206.383C53.3824 205.853 52.6765 205.412 52.0588 204.883L51.0882 204.088L50.6471 203.647C50.2059 203.206 49.7647 202.677 49.3235 202.324C48.5294 201.353 47.7353 200.294 47.1177 199.236C45.5294 196.324 44.7353 192.883 45.1765 189.53C45.1765 189.441 45.2647 189.441 45.3529 189.441C45.1765 189.441 45.2647 189.441 45.2647 189.53Z" fill="white"/>
<path d="M120.823 245.175C120.852 242.641 118.862 240.563 116.377 240.534C113.892 240.506 111.853 242.536 111.824 245.07C111.794 247.604 113.785 249.681 116.27 249.71C118.755 249.739 120.793 247.708 120.823 245.175Z" fill="white"/>
<path d="M126 257.117C126.618 261.794 123.53 266.118 119.118 266.647C114.706 267.176 110.647 263.912 110.03 259.147C109.412 254.47 112.236 248.029 116.647 247.412C121.059 246.882 125.383 252.353 126 257.117Z" fill="white"/>
<path d="M114.53 251.471C112.235 253.324 106.059 253.5 103.588 251.736C100.5 249.353 103.765 241.5 105.882 239.03C105.971 238.941 106.147 238.941 106.147 239.118L105.353 244.236C105.177 245.912 104.824 247.677 105 249.265C105 249.618 105.353 249.794 105.706 249.883C108.088 250.765 110.647 251.03 113.206 251.294C113.559 251.294 114.177 251.383 114.441 251.206C114.441 251.294 114.53 251.383 114.53 251.471Z" fill="white"/>
<path d="M113.825 256.677C110.472 259.059 106.766 260.118 102.619 259.677C102.355 259.677 101.825 259.5 101.561 259.412C97.3252 258 95.9134 252.794 96.7958 248.824C96.7958 248.647 96.9723 248.559 97.0605 248.735C98.0311 251.824 99.3546 256.324 102.972 256.941C104.737 257.206 106.59 257.118 108.355 256.941C110.119 256.765 111.972 256.588 113.737 256.235C113.913 256.324 114.002 256.5 113.825 256.677C113.913 256.588 113.825 256.677 113.825 256.677Z" fill="white"/>
<path d="M112.589 261C110.648 261.882 108.884 262.588 107.472 263.471C106.413 264.176 105.707 264.706 105.266 265.853C104.737 267.265 104.825 268.941 104.913 270.882C105.089 272.647 105.354 274.588 105.442 276.706C105.442 276.794 105.266 276.882 105.178 276.794C102.354 272.294 99.7953 263.647 106.678 261.529C108.531 260.912 110.56 260.735 112.501 260.824C112.766 260.735 112.766 261 112.589 261Z" fill="white"/>
<path d="M114.796 263.824C114.443 266.118 113.561 267.706 114.267 269.471C115.502 272.03 116.561 274.677 116.561 277.765C116.561 277.853 116.384 277.941 116.384 277.853C115.59 276.794 114.796 275.647 114.002 274.5C113.031 272.736 111.531 270.971 111.531 268.853C111.619 266.736 113.031 264.883 114.531 263.559C114.796 263.471 114.884 263.647 114.796 263.824Z" fill="white"/>
<path d="M119.824 250.588C120.265 250.147 121.235 249.353 121.765 248.912C123.177 247.765 125.118 246.529 126.53 245.382C126.618 245.294 126.706 245.206 126.618 245.382C126.53 245.47 126.441 245.647 126.353 245.823C126.265 246.088 126.177 246.265 126.265 246.529C125.471 243.353 124.5 240.265 124.677 236.823V236.735C124.677 236.647 124.853 236.559 124.941 236.647C126.088 238.941 127.235 241.323 128.118 243.706C128.471 244.588 128.912 245.559 128.912 246.617C128.824 247.059 128.471 247.235 128.206 247.5C127.147 248.294 125.912 248.823 124.765 249.353C124.147 249.617 119.559 251.559 119.735 250.676C119.735 250.588 119.824 250.588 119.824 250.588Z" fill="white"/>
<path d="M121.676 255.353C124.853 253.323 128.559 252.441 131.735 251.118C132.618 250.588 133.059 249.706 133.588 248.647C134.382 247.235 135 245.47 135.882 243.618C135.882 243.529 135.971 243.529 136.059 243.529C136.324 246.265 135.971 249.265 134.559 251.735C133.059 254.294 129.706 254.47 127.059 255C125.206 255.265 123.441 255.529 121.588 255.618C121.5 255.618 121.5 255.441 121.676 255.353Z" fill="white"/>
<path d="M123.882 259.235C130.765 253.5 139.147 258 137.647 267C137.294 269.118 136.5 271.147 135 272.824C134.912 272.912 134.735 272.824 134.735 272.735C135 271.765 135.176 270.882 135.265 269.912C136.147 263.382 134.47 257.824 126.706 258.971C125.735 259.059 124.765 259.235 123.882 259.5C123.794 259.588 123.706 259.324 123.882 259.235Z" fill="white"/>
<path d="M122.648 262.588C125.737 262.235 129.089 264.618 129.178 268.059C129.001 271.588 127.413 274.765 124.501 276.882C124.413 276.971 124.237 276.971 124.237 276.794C125.119 274.235 126.001 271.677 126.442 269.029C126.795 267.706 126.442 266.471 125.56 265.412C124.766 264.441 123.707 263.559 122.56 262.853C122.384 262.677 122.472 262.5 122.648 262.588Z" fill="white"/>
<path d="M125.471 216.706C123.619 225.794 111.619 231.265 91.4126 223.059C70.4126 214.588 61.3244 194.382 59.0303 188.382C71.4715 165.088 62.8244 148.941 62.8244 148.941C91.5009 146.471 116.56 180 116.56 180L120.442 196.588C120.795 198 121.501 199.235 122.56 200.118C124.413 203.382 126.619 210.882 125.471 216.706Z" fill="white"/>
<path d="M58.5896 188.647C60.2661 186.088 61.3249 183.088 62.0308 180.177C63.3543 174.088 63.7955 167.912 63.8837 161.735V159.441C63.619 157.147 62.8249 154.765 61.9425 152.647C60.7955 149.824 64.9425 148.059 66.2661 150.882C66.4425 151.235 66.4425 151.853 66.4425 152.206C66.7072 164.206 67.2367 179.647 59.6484 189.618C59.119 190.147 58.0602 189.353 58.5896 188.647Z" fill="black"/>
<path d="M117.531 179.823C118.854 180.617 119.295 181.676 119.472 182.735C120.001 184.853 119.825 187.147 120.354 189.353C120.795 191.47 122.119 193.5 122.472 195.706C122.913 198 124.236 202.853 124.766 205.235C124.942 205.764 124.589 206.382 123.972 206.47C123.619 206.559 123.354 206.47 123.089 206.294C121.942 205.323 121.413 204.353 120.707 203.117C119.56 201 118.766 199.059 118.06 196.676C117.442 194.559 117.707 192.264 117.178 190.059C116.736 187.941 115.501 185.911 115.06 183.706C114.795 182.647 114.707 181.5 115.501 180.176C116.031 179.647 116.913 179.47 117.531 179.823Z" fill="black"/>
<path d="M123.883 203.118C107.03 202.235 93.2653 196.941 79.8535 173.029C91.1476 183 104.471 186.794 118.501 188.559L120.354 196.676C120.706 198.088 122.824 202.235 123.883 203.118Z" fill="black"/>
<path d="M123.178 199.853C126.178 205.5 127.943 212.559 126.09 218.824C124.678 223.236 120.619 226.5 116.208 227.736C105.972 230.471 94.1489 226.147 85.0606 221.294C73.8548 215.03 65.5606 204.53 60.2665 193.059C59.9136 192.177 61.1489 191.471 61.6783 192.353C63.5312 196.059 65.6489 199.677 68.0312 202.941C70.4136 206.294 73.1489 209.383 76.2371 212.118C85.2371 220.236 97.4136 225.265 109.59 225.265C122.119 224.912 126.884 218.294 123.972 206.118C123.531 204.177 122.825 202.147 121.855 200.471C121.325 199.765 122.649 198.971 123.178 199.853Z" fill="black"/>
<path d="M157.324 93.8821C158.912 101.294 159.706 107.294 155.382 127.059C151.147 146.735 161.471 150.794 137.03 182.294C127.059 195.176 102.883 191.559 83.2943 178.235C76.6766 173.735 73.8531 162.176 68.9119 153.97C65.0296 147.529 63.2649 154.235 58.1472 148.676C51.1766 141.088 42.7943 125.823 46.9413 98.8233C53.6472 55.0586 88.3237 49.941 114 54.7939C139.853 59.7351 153.088 74.3821 157.324 93.8821Z" fill="white"/>
<path d="M62.5593 156.529C60.5299 153.088 57.8829 150.088 55.4123 146.912C53.0299 143.647 51.0888 140.029 49.5005 136.324C39.0005 110.559 43.0593 74.2941 68.824 59.1176C79.5005 52.9412 92.3829 51.4412 104.383 52.4118C130.059 54.2647 153.618 66.0882 159.177 93.2647C162.177 105.265 158.118 117.618 155.824 129.353C154.765 135.176 155.648 141.176 155.559 147.176C155.471 153.265 153.795 159.353 151.501 165C150.089 168.882 147.618 172.324 145.059 175.5C140.824 180.618 136.589 185.824 131.206 189.794C129.971 190.676 127.765 191.118 126.265 191.294C122.118 191.912 118.059 192.088 113.912 191.824C97.677 191.118 80.2946 183.265 73.7652 167.559C73.5005 166.941 74.3829 166.5 74.7358 167.029C83.2064 180.441 98.7358 187.059 114.177 187.941C118.942 188.206 123.795 188.118 128.471 187.147C130.765 186 132.795 183.971 134.736 182.118C139.501 177.353 144.353 172.235 147.795 166.412C151.942 158.559 154.236 150 153.53 141.088C153.353 137.118 153.265 132.971 154.059 129C154.765 125.029 155.648 121.235 156.177 117.176C156.706 113.294 156.971 109.324 156.971 105.441C156.53 94.0588 152.824 82.3235 145.589 73.5C129.618 53.6471 91.8535 48.4412 70.5888 62.0294C57.177 70.3235 50.9123 85.8529 48.8829 100.941C45.7946 119.029 46.677 136.853 61.0593 150L65.2946 154.412C66.9711 156.353 63.9711 158.647 62.5593 156.529Z" fill="black"/>
<path d="M72.9708 128.47C72.9708 128.47 70.2355 115.235 57.3531 116.823C46.2355 118.235 42.3531 144.882 67.5884 152.294" fill="white"/>
<path d="M66.441 140.735C64.4116 139.588 62.9998 137.647 62.9116 135.265C62.9998 133.5 63.2646 131.471 62.8234 129.706C62.5587 128.029 60.794 127.588 59.4704 127.676C58.0587 127.941 57.1763 129.706 56.9116 131.118C56.9116 131.206 56.8234 131.471 56.8234 131.559C56.7351 132 56.0293 132 55.8528 131.559C54.7057 128.118 57.2646 124.323 60.9704 124.765C66.1763 125.118 66.8822 130.588 65.9116 134.735C65.3822 136.5 66.0881 138.088 67.0587 139.588L67.2351 139.853C67.6763 140.382 66.9704 141.088 66.441 140.735Z" fill="black"/>
<path d="M137.03 119.118C138.353 125.382 140.824 131.206 143.912 136.676C146.647 143.382 139.589 149.735 133.324 149.47C132.618 149.47 132.53 148.5 133.147 148.323C137.118 147.088 140.736 144.441 141.353 140.382C141.618 139.147 141.265 138.088 140.647 137.029C137.736 131.559 135.971 125.294 136.412 119.118C136.412 118.676 137.03 118.676 137.03 119.118Z" fill="black"/>
<path d="M72.5296 128.559C70.5001 123.353 66.0884 118.412 60.1766 118.5C59.6472 118.412 58.7649 118.588 58.2354 118.588C56.7354 118.676 55.5001 119.206 54.3531 120.265C48.706 125.912 49.6766 135.882 54.2649 142.147C55.8531 144.353 57.8825 146.294 60.1766 147.882C62.4707 149.471 65.0296 150.706 67.7648 151.765C68.3825 151.941 68.1178 152.912 67.5001 152.823C61.5884 151.588 55.9413 148.676 52.059 143.823C46.059 136.588 44.8237 124.5 51.9707 117.441C53.559 116.029 55.7648 114.971 57.9707 114.971C58.6766 114.971 59.7354 114.794 60.4413 114.971C64.1472 115.147 67.6766 117 69.9707 119.912C72.0001 122.382 73.1472 125.382 73.5001 128.382C73.5001 128.912 72.706 129.088 72.5296 128.559Z" fill="black"/>
<path d="M130.323 158.294C124.676 163.677 114 159.353 111.176 152.824C110.823 152.03 111.705 151.324 112.411 151.677C113.911 152.471 115.235 153.265 116.647 153.883C120.705 155.736 124.941 157.236 129.441 156.794C130.323 156.618 130.941 157.677 130.323 158.294Z" fill="black"/>
<path d="M104.118 128.118C102 128.03 100.412 126.265 100.589 124.147L100.677 121.677C100.765 119.559 102.53 117.971 104.647 118.147C106.765 118.235 108.353 120 108.177 122.118L108.089 124.588C108 126.618 106.236 128.206 104.118 128.118Z" fill="black"/>
<path d="M141.265 129.441C139.324 129.353 137.824 127.676 137.912 125.735L138 123.441C138.088 121.5 139.765 120 141.706 120.088C143.647 120.176 145.147 121.853 145.059 123.794L144.971 126.088C144.882 128.029 143.206 129.529 141.265 129.441Z" fill="black"/>
<path d="M112.06 123.353C109.148 121.412 105.971 120.088 102.442 120.794C101.295 120.971 100.148 121.323 99.4419 122.118C99.1772 122.471 98.5596 122.382 98.5596 121.853C98.6478 120.088 100.148 118.941 101.56 118.235C104.295 116.823 108.089 117.088 110.56 118.941C111.442 119.471 114.442 122.735 112.854 123.441C112.501 123.618 112.324 123.529 112.06 123.353Z" fill="black"/>
<path d="M137.295 123.794C137.295 120.088 141.883 118.765 144.707 120.088C146.295 120.794 147.442 122.206 147.883 123.883C148.06 124.412 147.266 124.853 146.913 124.412C145.413 122.647 142.854 121.765 140.824 122.824C140.207 123.177 140.118 123.441 139.942 123.794C139.942 125.559 137.383 125.471 137.295 123.794Z" fill="black"/>
<path d="M116.294 108.794C118.147 109.412 120 107.735 119.647 105.706C119.471 104.647 119.029 103.588 118.147 102.794C115.5 100.412 104.559 98.294 97.9412 101.382C92.1177 104.206 107.824 105.97 116.294 108.794Z" fill="black"/>
<path d="M142.677 110.206C141.177 110.735 139.589 109.147 139.853 107.294C139.942 106.324 140.295 105.353 141 104.647C143.118 102.53 150.353 100.853 154.942 104.118C158.912 106.853 149.559 107.647 142.677 110.206Z" fill="black"/>
<path d="M165.971 75.3528C161.383 36.1763 122.471 22.941 129.971 49.0587C129.971 49.0587 119.736 32.6469 96.7063 31.7645C76.9415 31.0587 88.9416 45.0881 88.9416 45.0881C88.9416 45.0881 73.5886 36.2645 47.5592 49.4998C24.8827 61.0587 45.8827 71.2057 45.8827 71.2057C45.8827 71.2057 28.7651 80.2939 28.5004 99.8822C28.4121 105 32.6474 112.853 42.7063 110.294C40.1474 129.794 52.0592 145.765 57.5298 152.294C64.5886 160.765 65.2063 167.206 65.2063 167.206C68.8239 165.176 64.5886 156.088 64.6768 151.323C42.618 142.853 46.5886 118.235 57.3533 116.823C68.6474 115.412 72.1768 125.47 72.7945 127.941C74.6474 125.735 75.1768 117.176 76.2357 108.088C79.5004 107.029 82.4121 105.882 84.7945 104.382C94.1474 98.8234 98.5592 89.2057 108.089 83.5587C124.765 73.5881 129.089 96.0881 138 87.794C148.324 78.2645 155.824 85.8528 158.118 97.5881C159 101.823 164.383 101.47 165.177 97.2351C166.412 91.0587 166.942 83.6469 165.971 75.3528Z" fill="black"/>
</svg>
