<svg width="240" height="279" viewBox="0 0 240 279" fill="none" xmlns="http://www.w3.org/2000/svg">
<path d="M172.323 245.647C171.705 246.088 170.999 246.529 170.382 246.971C169.676 247.412 169.058 247.853 168.352 248.206C167.735 248.559 167.205 248.912 166.588 249.265C166.499 249.353 166.411 249.353 166.323 249.441C164.294 250.677 162.176 251.824 160.058 252.882C159.441 253.235 158.735 253.588 158.117 253.853C158.117 253.853 158.029 253.941 157.941 253.941C157.235 254.294 156.529 254.647 155.823 255C154.411 255.706 152.911 256.324 151.499 256.941C150.794 257.294 149.999 257.559 149.294 257.824C148.588 258.088 147.794 258.441 147.088 258.706C146.382 258.971 145.588 259.324 144.882 259.588C144.882 259.588 144.882 259.588 144.794 259.588C144.088 259.853 143.294 260.118 142.588 260.382C140.999 260.912 139.323 261.441 137.735 261.971C137.205 262.147 136.588 262.324 136.058 262.5C134.382 263.029 132.705 263.471 131.029 263.824C130.411 264 129.794 264.088 129.088 264.265C127.499 264.618 125.823 264.971 124.235 265.324C123.882 265.412 123.617 265.412 123.264 265.5C122.735 265.588 122.117 265.677 121.588 265.765C120.794 265.853 120.088 266.029 119.294 266.118C118.941 266.206 118.588 266.206 118.235 266.294C117.794 266.382 117.264 266.471 116.735 266.471C115.323 266.647 113.823 266.824 112.411 267C111.97 267.088 111.441 267.088 111 267.177H110.911C110.294 267.265 109.676 267.265 109.058 267.353C108.441 267.441 107.823 267.441 107.205 267.441C106.852 267.441 106.411 267.529 106.058 267.529C105.352 267.529 104.735 267.618 104.117 267.618C103.235 267.618 102.441 267.706 101.558 267.706C100.676 267.706 99.8819 267.706 98.9995 267.706C98.3819 267.706 97.7642 267.706 97.1466 267.706C59.9113 267.177 26.4701 251.382 2.55833 226.324C2.55833 226.324 2.55833 226.235 2.47009 226.235C-0.176967 223.853 2.11715 211.147 12.7936 203.118C26.2054 192.971 58.323 186.618 58.323 186.618C58.323 186.618 70.7642 184.588 116.911 194.206C143.911 199.853 164.47 208.059 175.941 230.294C178.323 234.882 180.705 241.941 172.323 245.647Z" fill="white"/>
<path d="M117.176 193.235C134.117 196.677 152.205 200.383 166.146 211.588C170.823 215.383 173.911 220.941 176.47 226.324C177.705 228.971 178.941 231.706 179.911 234.618C180.441 236.559 181.235 238.765 180.794 241.059C180.705 241.677 180.176 242.471 179.735 242.912C177.705 244.941 175.499 246.177 173.294 247.765C160.323 256.765 145.411 263.118 129.97 266.471C95.5582 273.971 58.3229 268.147 28.0582 250.059C17.9994 243.971 8.73466 236.559 0.793486 227.824C-0.0888672 226.765 -0.0888672 225 -0.0888672 223.853C-0.000631884 221.206 0.705248 218.647 1.5876 216.265C3.70525 210.794 6.44055 205.324 11.117 201.53C14.47 199.235 18.0876 197.294 21.7935 195.706C33.4405 190.765 45.7052 187.324 58.3229 185.912C59.3817 185.824 59.5582 187.324 58.4994 187.5C46.4111 189.971 34.4111 193.677 23.2052 198.706C19.1464 200.735 14.8229 202.5 11.5582 205.677C8.46996 209.03 6.26408 213.177 4.49937 217.412C3.35231 219.971 2.55819 224.03 2.91113 226.059C8.46996 232.677 14.9994 238.5 22.0582 243.53C60.7053 270.53 119.382 272.294 160.499 249.794C164.205 247.765 167.823 245.471 171.264 243.088C172.941 241.941 174.705 240.971 176.029 239.647C176.117 239.559 176.029 239.647 176.029 239.735C176.029 239.824 175.941 239.912 175.941 239.912C176.029 238.853 175.676 237.441 175.235 236.03C173.646 230.912 171.088 225.53 168.352 220.853C164.029 213.883 156.705 209.471 149.294 205.941C144.176 203.559 138.793 201.706 133.323 199.941C127.852 198.177 122.294 196.677 116.735 195.353C115.323 195 115.764 192.971 117.176 193.235Z" fill="black"/>
<path d="M125.824 178.589C125.824 178.589 117.441 176.471 99.0002 170.559C80.559 164.647 56.7355 168.53 56.7355 168.53C56.7355 168.53 50.9119 168.618 48.7061 173.03C46.5002 177.441 46.6767 186.53 43.3237 189C42.5296 189.53 40.3237 190.147 37.059 191.03C31.7649 192.53 23.7355 194.471 15.7943 198.883C9.88254 202.236 1.50019 212.471 0.176656 230.736C-0.0880495 234.353 0.000187972 271.765 -1.67628 275.383C-15.6175 303.706 -14.9998 291 -14.9998 291H200.647C200.647 291 186.177 270 182.471 249.353C178.588 227.824 171.883 215.294 166.412 211.147C153.706 201.53 139.941 198.441 134.647 196.059L134.03 188.118C134.118 188.03 130.677 177.265 125.824 178.589Z" fill="black" stroke="black" stroke-width="0.57682" stroke-miterlimit="10" stroke-linecap="round" stroke-linejoin="round"/>
<path d="M134.824 192.971C136.589 202.148 138.53 211.765 135.883 220.942C132.53 234.265 121.501 243.353 107.559 242.824C97.9418 242.648 88.8536 238.942 80.5595 234.442C66.7948 226.765 55.4124 214.677 49.3242 200.118C48.0889 197.118 47.0301 194.295 46.4124 191.118C46.3242 190.765 46.5889 190.324 47.0301 190.236C47.383 190.148 47.7359 190.412 47.8242 190.765C48.6183 193.589 49.8536 196.589 51.1771 199.236C57.883 212.912 68.8242 224.383 82.0595 231.706C92.383 237.265 104.736 242.03 116.383 238.765C131.736 234.442 136.942 216.53 134.559 202.236C134.207 199.148 133.765 196.148 133.324 193.059C133.148 192.353 134.648 192.001 134.824 192.971Z" fill="white"/>
<path d="M111.883 241.324C111.883 241.324 113.736 257.559 112.677 267.441" stroke="white" stroke-width="0.564662" stroke-miterlimit="10" stroke-linecap="round" stroke-linejoin="round"/>
<path d="M56.9121 214.059C51.1768 216.442 45.971 220.324 41.7357 224.824C40.2357 226.324 39.0004 228.089 37.7651 229.765C37.1474 230.559 35.8239 229.677 36.4415 228.883C39.971 223.236 44.5592 218.383 50.0298 214.677C51.8827 213.442 53.7357 212.295 55.8533 211.324C56.6474 210.971 57.5298 211.324 57.8827 212.03C58.2357 212.736 57.7945 213.706 56.9121 214.059Z" fill="white"/>
<path d="M136.677 208.5C144.177 211.588 150.706 217.147 154.235 224.471C154.412 224.824 154.235 225.177 153.971 225.353C153.618 225.529 153.265 225.353 153.088 225.088C151.147 221.824 148.677 218.912 145.588 216.618C142.677 214.412 139.147 212.471 135.618 211.412C133.677 210.706 134.735 207.794 136.677 208.5Z" fill="white"/>
<path d="M125.471 216.706C123.619 225.794 111.619 231.265 91.4126 223.059C70.4126 214.588 61.3244 194.382 59.0303 188.382C71.4715 165.088 62.8244 148.941 62.8244 148.941C91.5009 146.471 116.56 180 116.56 180L120.442 196.588C120.795 198 121.501 199.235 122.56 200.118C124.413 203.382 126.619 210.882 125.471 216.706Z" fill="white"/>
<path d="M58.5896 188.647C60.2661 186.088 61.3249 183.088 62.0308 180.177C63.3543 174.088 63.7955 167.912 63.8837 161.735V159.441C63.619 157.147 62.8249 154.765 61.9425 152.647C60.7955 149.824 64.9425 148.059 66.2661 150.882C66.4425 151.235 66.4425 151.853 66.4425 152.206C66.7072 164.206 67.2367 179.647 59.6484 189.618C59.119 190.147 58.0602 189.353 58.5896 188.647Z" fill="black"/>
<path d="M117.531 179.823C118.854 180.617 119.295 181.676 119.472 182.735C120.001 184.853 119.825 187.147 120.354 189.353C120.795 191.47 122.119 193.5 122.472 195.706C122.913 198 124.236 202.853 124.766 205.235C124.942 205.764 124.589 206.382 123.972 206.47C123.619 206.559 123.354 206.47 123.089 206.294C121.942 205.323 121.413 204.353 120.707 203.117C119.56 201 118.766 199.059 118.06 196.676C117.442 194.559 117.707 192.264 117.178 190.059C116.736 187.941 115.501 185.911 115.06 183.706C114.795 182.647 114.707 181.5 115.501 180.176C116.031 179.647 116.913 179.47 117.531 179.823Z" fill="black"/>
<path d="M123.883 203.118C107.03 202.235 93.2653 196.941 79.8535 173.029C91.1476 183 104.471 186.794 118.501 188.559L120.354 196.676C120.706 198.088 122.824 202.235 123.883 203.118Z" fill="black"/>
<path d="M123.178 199.853C126.178 205.5 127.943 212.559 126.09 218.824C124.678 223.236 120.619 226.5 116.208 227.736C105.972 230.471 94.1489 226.147 85.0606 221.294C73.8548 215.03 65.5606 204.53 60.2665 193.059C59.9136 192.177 61.1489 191.471 61.6783 192.353C63.5312 196.059 65.6489 199.677 68.0312 202.941C70.4136 206.294 73.1489 209.383 76.2371 212.118C85.2371 220.236 97.4136 225.265 109.59 225.265C122.119 224.912 126.884 218.294 123.972 206.118C123.531 204.177 122.825 202.147 121.855 200.471C121.325 199.765 122.649 198.971 123.178 199.853Z" fill="black"/>
<path d="M157.324 93.8821C158.912 101.294 159.706 107.294 155.382 127.059C151.147 146.735 161.471 150.794 137.03 182.294C127.059 195.176 102.883 191.559 83.2943 178.235C76.6766 173.735 73.8531 162.176 68.9119 153.97C65.0296 147.529 63.2649 154.235 58.1472 148.676C51.1766 141.088 42.7943 125.823 46.9413 98.8233C53.6472 55.0586 88.3237 49.941 114 54.7939C139.853 59.7351 153.088 74.3821 157.324 93.8821Z" fill="white"/>
<path d="M62.5593 156.529C60.5299 153.088 57.8829 150.088 55.4123 146.912C53.0299 143.647 51.0888 140.029 49.5005 136.324C39.0005 110.559 43.0593 74.2941 68.824 59.1176C79.5005 52.9412 92.3829 51.4412 104.383 52.4118C130.059 54.2647 153.618 66.0882 159.177 93.2647C162.177 105.265 158.118 117.618 155.824 129.353C154.765 135.176 155.648 141.176 155.559 147.176C155.471 153.265 153.795 159.353 151.501 165C150.089 168.882 147.618 172.324 145.059 175.5C140.824 180.618 136.589 185.824 131.206 189.794C129.971 190.676 127.765 191.118 126.265 191.294C122.118 191.912 118.059 192.088 113.912 191.824C97.677 191.118 80.2946 183.265 73.7652 167.559C73.5005 166.941 74.3829 166.5 74.7358 167.029C83.2064 180.441 98.7358 187.059 114.177 187.941C118.942 188.206 123.795 188.118 128.471 187.147C130.765 186 132.795 183.971 134.736 182.118C139.501 177.353 144.353 172.235 147.795 166.412C151.942 158.559 154.236 150 153.53 141.088C153.353 137.118 153.265 132.971 154.059 129C154.765 125.029 155.648 121.235 156.177 117.176C156.706 113.294 156.971 109.324 156.971 105.441C156.53 94.0588 152.824 82.3235 145.589 73.5C129.618 53.6471 91.8535 48.4412 70.5888 62.0294C57.177 70.3235 50.9123 85.8529 48.8829 100.941C45.7946 119.029 46.677 136.853 61.0593 150L65.2946 154.412C66.9711 156.353 63.9711 158.647 62.5593 156.529Z" fill="black"/>
<path d="M72.9708 128.47C72.9708 128.47 70.2355 115.235 57.3531 116.823C46.2355 118.235 42.3531 144.882 67.5884 152.294" fill="white"/>
<path d="M66.441 140.735C64.4116 139.588 62.9998 137.647 62.9116 135.265C62.9998 133.5 63.2646 131.471 62.8234 129.706C62.5587 128.029 60.794 127.588 59.4704 127.676C58.0587 127.941 57.1763 129.706 56.9116 131.118C56.9116 131.206 56.8234 131.471 56.8234 131.559C56.7351 132 56.0293 132 55.8528 131.559C54.7057 128.118 57.2646 124.323 60.9704 124.765C66.1763 125.118 66.8822 130.588 65.9116 134.735C65.3822 136.5 66.0881 138.088 67.0587 139.588L67.2351 139.853C67.6763 140.382 66.9704 141.088 66.441 140.735Z" fill="black"/>
<path d="M137.03 119.118C138.353 125.382 140.824 131.206 143.912 136.676C146.647 143.382 139.589 149.735 133.324 149.47C132.618 149.47 132.53 148.5 133.147 148.323C137.118 147.088 140.736 144.441 141.353 140.382C141.618 139.147 141.265 138.088 140.647 137.029C137.736 131.559 135.971 125.294 136.412 119.118C136.412 118.676 137.03 118.676 137.03 119.118Z" fill="black"/>
<path d="M72.5296 128.559C70.5001 123.353 66.0884 118.412 60.1766 118.5C59.6472 118.412 58.7649 118.588 58.2354 118.588C56.7354 118.676 55.5001 119.206 54.3531 120.265C48.706 125.912 49.6766 135.882 54.2649 142.147C55.8531 144.353 57.8825 146.294 60.1766 147.882C62.4707 149.471 65.0296 150.706 67.7648 151.765C68.3825 151.941 68.1178 152.912 67.5001 152.823C61.5884 151.588 55.9413 148.676 52.059 143.823C46.059 136.588 44.8237 124.5 51.9707 117.441C53.559 116.029 55.7648 114.971 57.9707 114.971C58.6766 114.971 59.7354 114.794 60.4413 114.971C64.1472 115.147 67.6766 117 69.9707 119.912C72.0001 122.382 73.1472 125.382 73.5001 128.382C73.5001 128.912 72.706 129.088 72.5296 128.559Z" fill="black"/>
<path d="M130.323 158.294C124.676 163.677 114 159.353 111.176 152.824C110.823 152.03 111.705 151.324 112.411 151.677C113.911 152.471 115.235 153.265 116.647 153.883C120.705 155.736 124.941 157.236 129.441 156.794C130.323 156.618 130.941 157.677 130.323 158.294Z" fill="black"/>
<path d="M104.118 128.118C102 128.03 100.412 126.265 100.589 124.147L100.677 121.677C100.765 119.559 102.53 117.971 104.647 118.147C106.765 118.235 108.353 120 108.177 122.118L108.089 124.588C108 126.618 106.236 128.206 104.118 128.118Z" fill="black"/>
<path d="M141.265 129.441C139.324 129.353 137.824 127.676 137.912 125.735L138 123.441C138.088 121.5 139.765 120 141.706 120.088C143.647 120.176 145.147 121.853 145.059 123.794L144.971 126.088C144.882 128.029 143.206 129.529 141.265 129.441Z" fill="black"/>
<path d="M112.06 123.353C109.148 121.412 105.971 120.088 102.442 120.794C101.295 120.971 100.148 121.323 99.4419 122.118C99.1772 122.471 98.5596 122.382 98.5596 121.853C98.6478 120.088 100.148 118.941 101.56 118.235C104.295 116.823 108.089 117.088 110.56 118.941C111.442 119.471 114.442 122.735 112.854 123.441C112.501 123.618 112.324 123.529 112.06 123.353Z" fill="black"/>
<path d="M137.295 123.794C137.295 120.088 141.883 118.765 144.707 120.088C146.295 120.794 147.442 122.206 147.883 123.883C148.06 124.412 147.266 124.853 146.913 124.412C145.413 122.647 142.854 121.765 140.824 122.824C140.207 123.177 140.118 123.441 139.942 123.794C139.942 125.559 137.383 125.471 137.295 123.794Z" fill="black"/>
<path d="M116.294 108.794C118.147 109.412 120 107.735 119.647 105.706C119.471 104.647 119.029 103.588 118.147 102.794C115.5 100.412 104.559 98.294 97.9412 101.382C92.1177 104.206 107.824 105.97 116.294 108.794Z" fill="black"/>
<path d="M142.677 110.206C141.177 110.735 139.589 109.147 139.853 107.294C139.942 106.324 140.295 105.353 141 104.647C143.118 102.53 150.353 100.853 154.942 104.118C158.912 106.853 149.559 107.647 142.677 110.206Z" fill="black"/>
<path d="M165.971 75.3528C161.383 36.1763 122.471 22.941 129.971 49.0587C129.971 49.0587 119.736 32.6469 96.7063 31.7645C76.9415 31.0587 88.9416 45.0881 88.9416 45.0881C88.9416 45.0881 73.5886 36.2645 47.5592 49.4998C24.8827 61.0587 45.8827 71.2057 45.8827 71.2057C45.8827 71.2057 28.7651 80.2939 28.5004 99.8822C28.4121 105 32.6474 112.853 42.7063 110.294C40.1474 129.794 52.0592 145.765 57.5298 152.294C64.5886 160.765 65.2063 167.206 65.2063 167.206C68.8239 165.176 64.5886 156.088 64.6768 151.323C42.618 142.853 46.5886 118.235 57.3533 116.823C68.6474 115.412 72.1768 125.47 72.7945 127.941C74.6474 125.735 75.1768 117.176 76.2357 108.088C79.5004 107.029 82.4121 105.882 84.7945 104.382C94.1474 98.8234 98.5592 89.2057 108.089 83.5587C124.765 73.5881 129.089 96.0881 138 87.794C148.324 78.2645 155.824 85.8528 158.118 97.5881C159 101.823 164.383 101.47 165.177 97.2351C166.412 91.0587 166.942 83.6469 165.971 75.3528Z" fill="black"/>
</svg>
