<svg width="233" height="276" viewBox="0 0 233 276" fill="none" xmlns="http://www.w3.org/2000/svg">
<path d="M171.324 245.647C170.706 246.088 170.001 246.529 169.383 246.971C168.677 247.412 168.059 247.853 167.353 248.206C166.736 248.559 166.206 248.912 165.589 249.265C165.501 249.353 165.412 249.353 165.324 249.441C163.295 250.677 161.177 251.824 159.059 252.882C158.442 253.235 157.736 253.588 157.118 253.853C157.118 253.853 157.03 253.941 156.942 253.941C156.236 254.294 155.53 254.647 154.824 255C153.412 255.706 151.912 256.324 150.501 256.941C149.795 257.294 149.001 257.559 148.295 257.824C147.589 258.088 146.795 258.441 146.089 258.706C145.383 258.971 144.589 259.324 143.883 259.588C143.883 259.588 143.883 259.588 143.795 259.588C143.089 259.853 142.295 260.118 141.589 260.382C140 260.912 138.324 261.441 136.736 261.971C136.206 262.147 135.589 262.324 135.059 262.5C133.383 263.029 131.706 263.471 130.03 263.824C129.412 264 128.795 264.088 128.089 264.265C126.501 264.618 124.824 264.971 123.236 265.324C122.883 265.412 122.618 265.412 122.265 265.5C121.736 265.588 121.118 265.677 120.589 265.765C119.795 265.853 119.089 266.029 118.295 266.118C117.942 266.206 117.589 266.206 117.236 266.294C116.795 266.382 116.265 266.471 115.736 266.471C114.324 266.647 112.824 266.824 111.412 267C110.971 267.088 110.442 267.088 110.001 267.177H109.912C109.295 267.265 108.677 267.265 108.059 267.353C107.442 267.441 106.824 267.441 106.206 267.441C105.853 267.441 105.412 267.529 105.059 267.529C104.353 267.529 103.736 267.618 103.118 267.618C102.236 267.618 101.442 267.706 100.559 267.706C99.677 267.706 98.8829 267.706 98.0005 267.706C97.3829 267.706 96.7652 267.706 96.1476 267.706C58.9123 267.177 25.4711 251.382 1.55931 226.324C1.55931 226.324 1.5593 226.235 1.47107 226.235C-1.17599 223.853 1.11813 211.147 11.7946 203.118C25.2064 192.971 57.324 186.618 57.324 186.618C57.324 186.618 69.7652 184.588 115.912 194.206C142.912 199.853 163.471 208.059 174.942 230.294C177.324 234.882 179.706 241.941 171.324 245.647Z" fill="white"/>
<path d="M116.177 193.235C133.118 196.677 151.206 200.383 165.147 211.588C169.824 215.383 172.912 220.941 175.471 226.324C176.706 228.971 177.942 231.706 178.912 234.618C179.442 236.559 180.236 238.765 179.795 241.059C179.706 241.677 179.177 242.471 178.736 242.912C176.706 244.941 174.5 246.177 172.295 247.765C159.324 256.765 144.412 263.118 128.971 266.471C94.5592 273.971 57.3239 268.147 27.0592 250.059C17.0003 243.971 7.73564 236.559 -0.205537 227.824C-1.08789 226.765 -1.08789 225 -1.08789 223.853C-0.999655 221.206 -0.293775 218.647 0.588578 216.265C2.70623 210.794 5.44152 205.324 10.118 201.53C13.4709 199.235 17.0886 197.294 20.7945 195.706C32.4415 190.765 44.7062 187.324 57.3239 185.912C58.3827 185.824 58.5592 187.324 57.5004 187.5C45.4121 189.971 33.4121 193.677 22.2062 198.706C18.1474 200.735 13.8239 202.5 10.5592 205.677C7.47094 209.03 5.26505 213.177 3.50035 217.412C2.35329 219.971 1.55917 224.03 1.91211 226.059C7.47093 232.677 14.0004 238.5 21.0592 243.53C59.7062 270.53 118.383 272.294 159.5 249.794C163.206 247.765 166.824 245.471 170.265 243.088C171.942 241.941 173.706 240.971 175.03 239.647C175.118 239.559 175.03 239.647 175.03 239.736C175.03 239.824 174.942 239.912 174.942 239.912C175.03 238.853 174.677 237.441 174.236 236.03C172.647 230.912 170.089 225.53 167.353 220.853C163.03 213.883 155.706 209.471 148.295 205.941C143.177 203.559 137.794 201.706 132.324 199.941C126.853 198.177 121.295 196.677 115.736 195.353C114.324 195 114.765 192.971 116.177 193.235Z" fill="black"/>
<path d="M189.413 298.765L-22.4404 300.353C-22.4404 300.353 -13.7051 264.882 -3.46984 234.441C0.32428 223.147 2.00075 208.765 11.0008 201.971C21.1478 194.294 35.4419 191.471 44.8831 188.118C49.9125 186.353 53.7066 186.441 57.2361 185.471C57.2361 185.912 57.3243 186.265 57.3243 186.706C57.3243 186.706 66.8537 215.03 91.6478 225.088C111.854 233.294 123.854 227.824 125.707 218.735C126.854 212.912 123.236 203.382 121.383 200.294C120.324 199.412 119.618 198.088 119.265 196.765L118.56 193.853C120.236 193.5 121.824 193.059 123.413 192.53C123.942 192.353 125.001 193.941 125.442 193.765C136.824 196.765 159.765 204.265 170.354 215.912C183.413 229.853 189.413 298.765 189.413 298.765Z" fill="black"/>
<mask id="mask0_158_4192" style="mask-type:alpha" maskUnits="userSpaceOnUse" x="-23" y="185" width="213" height="116">
<path d="M189.413 298.765L-22.4404 300.353C-22.4404 300.353 -13.7051 264.882 -3.46984 234.441C0.32428 223.147 2.00075 208.765 11.0008 201.971C21.1478 194.294 35.4419 191.471 44.8831 188.118C49.9125 186.353 53.7066 186.441 57.2361 185.471C57.2361 185.912 57.3243 186.265 57.3243 186.706C57.3243 186.706 66.8537 215.03 91.6478 225.088C111.854 233.294 123.854 227.824 125.707 218.735C126.854 212.912 123.236 203.382 121.383 200.294C120.324 199.412 119.618 198.088 119.265 196.765L118.56 193.853C120.236 193.5 121.824 193.059 123.413 192.53C123.942 192.353 125.001 193.941 125.442 193.765C136.824 196.765 159.765 204.265 170.354 215.912C183.413 229.853 189.413 298.765 189.413 298.765Z" fill="black"/>
</mask>
<g mask="url(#mask0_158_4192)">
<path d="M69.0692 201.238L57.2148 213.092L69.0692 224.947L80.9235 213.092L69.0692 201.238Z" fill="white"/>
<path d="M115.556 201.211L103.702 213.065L115.556 224.919L127.411 213.065L115.556 201.211Z" fill="white"/>
<path d="M22.6424 201.203L10.7881 213.057L22.6424 224.911L34.4967 213.057L22.6424 201.203Z" fill="white"/>
<path d="M161.361 201.237L149.507 213.092L161.361 224.946L173.215 213.092L161.361 201.237Z" fill="white"/>
<path d="M47.5965 247.033L35.7422 258.887L47.5965 270.742L59.4508 258.887L47.5965 247.033Z" fill="white"/>
<path d="M94.0848 247.006L82.2305 258.86L94.0848 270.714L105.939 258.86L94.0848 247.006Z" fill="white"/>
<path d="M139.889 247.032L128.035 258.887L139.889 270.741L151.744 258.887L139.889 247.032Z" fill="white"/>
</g>
<path d="M191.089 300.265C128.089 300.882 39.5892 302.294 -22.4403 302.559C-23.6756 302.559 -24.7344 301.588 -24.7344 300.353C-20.2344 281.382 -14.7638 262.588 -8.94026 243.97C-7.96967 240.882 -6.99908 237.794 -5.94025 234.794C-3.82261 228.706 -2.49908 222.441 -0.469664 216.265C3.32445 204.529 8.35386 199.412 19.4715 194.382C27.0597 190.941 34.8245 189 42.5009 186.529L44.795 185.735C48.5892 184.323 53.3539 184.147 56.795 183.265C58.0303 183 59.1774 183.706 59.5303 184.853C59.6186 184.941 59.7068 186.353 59.7068 186.529L57.4127 184.412C58.3833 184.412 59.2656 185.029 59.5303 185.912C60.2362 187.941 61.2068 190.059 62.1774 192.088C69.0598 206.117 80.0892 218.735 95.1774 223.941C102.942 226.676 112.913 228.794 119.883 224.029C123.236 221.735 124.295 217.676 123.589 213.794C122.972 209.647 121.56 205.235 119.53 201.529L119.972 202.059C118.383 200.47 117.677 198.088 117.589 195.97L117.413 194.206C117.236 193.412 117.589 192.617 118.472 192.529C119.972 192.265 121.472 191.823 122.883 191.382C123.148 191.294 123.677 191.117 123.942 191.206C125.089 191.47 125.266 192.088 125.972 192.529C125.883 192.529 125.707 192.353 125.266 192.529H126.06C131.619 193.941 137.089 195.617 142.472 197.647C153.324 201.794 164.177 206.47 172.295 215.206C183.766 229.588 188.972 275.029 191.266 294.353C191.266 294.529 191.53 297.265 191.619 297.529L191.707 298.059V298.323V298.412C191.707 299.029 191.442 299.823 191.089 300.265ZM187.736 297.265C187.472 297.529 187.207 297.882 187.207 298.235C187.207 298.412 187.119 298.588 187.207 298.765V298.676C187.207 298.323 187.119 297.265 187.03 296.823C184.736 275.206 182.001 253.147 176.001 232.235C173.972 225.882 171.766 219.088 166.56 214.853C159.236 208.5 150.236 204.441 141.236 201C136.03 199.059 130.648 197.294 125.177 195.882L126.501 195.794C125.795 196.059 125.266 195.97 124.736 195.706C124.03 195.353 123.413 194.735 123.06 194.206C123.236 194.294 123.854 194.382 124.207 194.294H124.295H124.207L123.942 194.382C122.354 194.735 120.677 194.912 119.089 195.088L120.148 193.412C120.854 195.265 121.295 197.559 123.06 198.529C124.736 200.735 125.53 203.382 126.413 205.941C127.56 209.47 128.442 213.176 128.266 216.97C127.824 227.559 117.06 231.97 107.795 231.265C93.148 230.206 79.4715 222.882 69.9421 211.941C63.5892 204.706 58.5598 196.412 55.2068 187.412L57.3245 188.912C56.0892 188.912 55.1186 188.029 55.0303 186.794L54.9421 185.647L57.7656 187.676C56.0009 188.117 54.3245 188.382 52.7362 188.559C47.9715 189.088 43.7362 190.941 39.148 192.265C32.9715 194.117 26.8833 195.97 21.2362 198.529C15.8539 201.088 10.3833 204 7.38328 209.382C4.29504 214.676 2.7068 220.853 1.03033 226.853C-0.557902 233.029 -2.85202 239.206 -4.7932 245.382C-10.6167 263.735 -15.7344 282.265 -20.4108 300.97L-22.6167 298.147C38.2656 297.706 126.06 297.265 187.736 297.265Z" fill="black"/>
<path d="M111.324 221.47C111.324 221.47 105.236 226.059 106.559 230.382C107.883 234.706 119.618 234 121.912 230.382C124.118 226.765 114.148 220.588 111.324 221.47Z" fill="black"/>
<path d="M111.147 221.294C111.236 221.382 111.236 221.382 111.324 221.47C111.324 221.382 111.324 221.294 111.324 221.294C111.324 221.294 111.236 221.294 111.147 221.294Z" fill="white"/>
<path d="M87.7654 217.765C62.9712 207.706 58.736 188.824 58.736 188.824L72.236 183.088C72.236 182.647 75.8536 178.941 75.7654 178.588C75.6771 177.265 66.6771 175.853 56.7948 179.118C55.2065 179.647 53.2654 180.706 51.5007 181.677C48.3242 183.53 45.7654 186.177 44.1771 189.441C44.1771 189.53 44.0889 189.53 44.0889 189.618C43.9124 212.824 67.1183 232.324 84.8536 238.765C95.6183 242.647 107.177 235.236 110.618 224.383C110.883 223.412 111.148 222.53 111.324 221.559C111.236 221.471 111.236 221.471 111.148 221.383C105.412 222.53 97.4713 221.736 87.7654 217.765Z" fill="white"/>
<path d="M87.3239 219C75.5886 214.323 64.8239 205.941 59.4415 194.382C58.6474 192.706 58.0298 191.029 57.5003 189.088C57.3239 188.471 57.6768 187.853 58.2945 187.588C61.8239 186.088 67.4709 183.706 70.9121 182.206C71.0886 182.118 71.5298 181.941 71.7062 181.853C71.4415 181.941 70.9121 182.382 70.9121 183C70.9121 183.794 71.7062 184.323 72.2356 184.323L70.9121 183.088C70.9121 182.823 71.0004 182.47 71.0004 182.47C71.3533 181.676 72.0592 180.97 72.5886 180.353C72.9415 180 74.3533 178.235 74.5298 178.059C74.4415 178.323 74.4415 178.853 74.618 179.029C74.7945 179.294 74.7062 179.118 74.5298 179.029C71.1768 177.882 67.3827 177.882 63.8533 178.235C58.0298 178.676 52.2062 181.235 48.6768 186C47.618 187.323 46.6474 189 45.9415 190.412C45.9415 190.323 45.9415 190.412 46.118 189.971C46.2062 189.088 46.118 189.706 46.2062 189.529V189.618C46.3827 208.588 60.7651 224.647 76.4709 233.912C81.5886 236.647 87.2357 239.823 93.2357 238.853C101.971 237.618 109.206 229.853 110.089 221.118L110.442 222.265L110.265 222.088L111.5 222.441C103.206 224.206 94.9121 222 87.3239 219ZM88.2945 216.618C95.3533 219.441 103.294 221.559 110.883 220.059C111.324 219.97 111.765 220.147 112.118 220.412C112.471 220.676 112.736 221.206 112.647 221.735C110.53 231 102.853 238.941 93.3239 240.176C90.2356 240.618 86.9709 240.176 84.0592 239.029C78.3239 236.912 72.8533 234 67.8239 230.471C54.3239 221.294 42.0592 206.823 42.0592 189.618V189.529C42.0592 189.353 41.9709 189.971 42.1474 189.088C42.2356 188.647 42.3239 188.735 42.3239 188.647C44.0003 185.206 47.0003 182.559 50.4415 180.971C54.6768 178.941 59.0886 177.529 63.7651 176.735C66.1474 176.294 77.2651 174.794 77.1768 178.765C77.0003 179.471 76.5592 179.912 76.2062 180.441C75.5886 181.235 74.3533 182.647 73.7356 183.441C73.7356 183.441 73.5592 183.618 73.6474 183.618V183.529C73.6474 183.529 73.7356 183.265 73.7356 183.088L72.4121 181.853C72.5886 181.853 73.118 181.941 73.2945 182.294C73.8239 182.823 73.7356 183.794 73.2062 184.235C72.7651 184.5 72.9415 184.412 72.8533 184.412H72.7651L72.6768 184.5C72.3239 184.676 71.618 184.941 71.1768 185.118C68.0886 186.441 62.5298 188.823 59.3533 190.147L60.1474 188.647C60.5886 190.147 61.2062 191.823 61.9121 193.323C67.2062 204.088 77.1768 212.118 88.2945 216.618Z" fill="black"/>
<path d="M134.971 215.117C133.56 202.853 126.942 195.97 123.589 192.441C122.001 192.97 119.354 193.588 117.677 193.941C117.677 193.941 123.412 201.353 121.912 211.412C121.207 216.176 117.589 219.794 111.412 221.206C111.412 221.294 111.412 221.294 111.324 221.382C113.618 224.029 115.56 229.764 122.883 233.206C127.912 235.588 131.089 232.853 133.295 227.823C135.148 223.5 135.412 218.559 134.971 215.117Z" fill="white"/>
<path d="M133.913 215.294C133.119 206.823 129.06 198.97 123.236 192.794L123.766 192.882C121.824 193.764 119.971 194.558 117.942 195.264L118.736 193.147C122.177 198.088 123.854 204 123.413 210C123.236 216.706 117.854 221.294 111.677 222.529L112.648 221.647L112.56 221.823L112.295 220.5C114.589 223.588 115.824 226.588 118.648 229.058C120.942 231 124.207 233.47 127.295 232.941C133.295 231.176 134.53 220.588 133.913 215.294ZM136.03 215.029C136.648 220.676 135.677 226.5 132.589 231.264C128.442 237.794 121.913 234.882 117.148 230.823C114.324 228.529 112.383 225 110.266 222.264C109.56 221.47 110.089 220.058 111.06 219.882C113.619 219.264 116.089 218.206 117.854 216.441C123.236 211.147 120.501 200.206 116.619 194.647L116.442 193.941C116.266 193.323 116.619 192.706 117.148 192.529C119.266 192.264 121.383 192.176 123.413 191.823C123.589 191.735 123.766 191.823 123.942 191.911C130.471 198.088 134.971 206.206 136.03 215.029Z" fill="black"/>
<path d="M124.47 216.706C122.618 225.795 110.618 231.265 90.4116 223.059C69.4116 214.589 60.3234 194.383 58.0293 188.383C70.4705 165.089 61.8234 148.942 61.8234 148.942C90.4999 146.471 115.559 180 115.559 180L119.441 196.589C119.794 198 120.5 199.236 121.559 200.118C123.412 203.383 125.618 210.883 124.47 216.706Z" fill="white"/>
<path d="M57.5886 188.648C59.2651 186.089 60.3239 183.089 61.0298 180.177C62.3533 174.089 62.7945 167.912 62.8827 161.736V159.442C62.618 157.148 61.8239 154.765 60.9416 152.648C59.7945 149.824 63.9416 148.059 65.2651 150.883C65.4416 151.236 65.4416 151.854 65.4416 152.206C65.7063 164.206 66.2357 179.648 58.6475 189.618C58.118 190.148 57.0592 189.354 57.5886 188.648Z" fill="black"/>
<path d="M116.53 179.824C117.853 180.618 118.294 181.677 118.471 182.736C119 184.854 118.824 187.148 119.353 189.354C119.794 191.471 121.118 193.501 121.471 195.707C121.912 198.001 123.236 202.854 123.765 205.236C123.941 205.765 123.588 206.383 122.971 206.471C122.618 206.56 122.353 206.471 122.088 206.295C120.941 205.324 120.412 204.354 119.706 203.118C118.559 201.001 117.765 199.06 117.059 196.677C116.441 194.56 116.706 192.265 116.177 190.06C115.736 187.942 114.5 185.912 114.059 183.707C113.794 182.648 113.706 181.501 114.5 180.177C115.03 179.648 115.912 179.471 116.53 179.824Z" fill="black"/>
<path d="M122.883 203.118C106.03 202.236 92.2653 196.942 78.8535 173.03C90.1476 183 103.471 186.794 117.501 188.559L119.354 196.677C119.706 198.089 121.824 202.236 122.883 203.118Z" fill="black"/>
<path d="M122.176 199.853C125.176 205.5 126.941 212.559 125.088 218.824C123.676 223.236 119.618 226.5 115.206 227.736C104.97 230.471 93.1469 226.147 84.0587 221.294C72.8528 215.03 64.5587 204.53 59.2646 193.059C58.9116 192.177 60.1469 191.471 60.6763 192.353C62.5293 196.059 64.6469 199.677 67.0293 202.941C69.4116 206.294 72.1469 209.383 75.2352 212.118C84.2352 220.236 96.4116 225.265 108.588 225.265C121.118 224.912 125.882 218.294 122.97 206.118C122.529 204.177 121.823 202.147 120.853 200.471C120.323 199.765 121.647 198.971 122.176 199.853Z" fill="black"/>
<path d="M156.324 93.8826C157.912 101.294 158.706 107.294 154.383 127.059C150.147 146.736 160.471 150.794 136.03 182.294C126.059 195.177 101.883 191.559 82.2943 178.236C75.6766 173.736 72.8531 162.177 67.9119 153.971C64.0296 147.53 62.2649 154.236 57.1472 148.677C50.1766 141.089 41.7943 125.824 45.9413 98.8238C52.6472 55.0591 87.3237 49.9415 113 54.7944C138.853 59.7356 152.088 74.3826 156.324 93.8826Z" fill="white"/>
<path d="M61.5584 156.529C59.5289 153.088 56.8819 150.088 54.4113 146.912C52.0289 143.647 50.0878 140.029 48.4995 136.324C37.9995 110.559 42.0584 74.2941 67.8231 59.1176C78.4995 52.9412 91.3819 51.4412 103.382 52.4118C129.058 54.2647 152.617 66.0882 158.176 93.2647C161.176 105.265 157.117 117.618 154.823 129.353C153.764 135.176 154.647 141.176 154.558 147.176C154.47 153.265 152.794 159.353 150.5 165C149.088 168.882 146.617 172.324 144.058 175.5C139.823 180.618 135.588 185.824 130.205 189.794C128.97 190.676 126.764 191.118 125.264 191.294C121.117 191.912 117.058 192.088 112.911 191.824C96.676 191.118 79.2937 183.265 72.7642 167.559C72.4995 166.941 73.3819 166.5 73.7348 167.029C82.2054 180.441 97.7348 187.059 113.176 187.941C117.941 188.206 122.794 188.118 127.47 187.147C129.764 186 131.794 183.971 133.735 182.118C138.5 177.353 143.352 172.235 146.794 166.412C150.941 158.559 153.235 150 152.529 141.088C152.352 137.118 152.264 132.971 153.058 129C153.764 125.029 154.647 121.235 155.176 117.176C155.705 113.294 155.97 109.324 155.97 105.441C155.529 94.0588 151.823 82.3235 144.588 73.5C128.617 53.6471 90.8525 48.4412 69.5878 62.0294C56.176 70.3235 49.9113 85.8529 47.8819 100.941C44.7937 119.029 45.676 136.853 60.0584 150L64.2937 154.412C65.9701 156.353 62.9701 158.647 61.5584 156.529Z" fill="black"/>
<path d="M71.9698 128.471C71.9698 128.471 69.2345 115.235 56.3521 116.824C45.2345 118.235 41.3521 144.883 66.5874 152.294" fill="white"/>
<path d="M65.441 140.735C63.4116 139.588 61.9999 137.647 61.9116 135.265C61.9999 133.5 62.2646 131.471 61.8234 129.706C61.5587 128.029 59.794 127.588 58.4704 127.676C57.0587 127.941 56.1763 129.706 55.9116 131.118C55.9116 131.206 55.8234 131.471 55.8234 131.559C55.7351 132 55.0293 132 54.8528 131.559C53.7057 128.118 56.2646 124.323 59.9704 124.765C65.1763 125.118 65.8822 130.588 64.9116 134.735C64.3822 136.5 65.0881 138.088 66.0587 139.588L66.2352 139.853C66.6763 140.382 65.9704 141.088 65.441 140.735Z" fill="black"/>
<path d="M136.029 119.118C137.352 125.382 139.823 131.206 142.911 136.676C145.646 143.382 138.588 149.735 132.323 149.47C131.617 149.47 131.529 148.5 132.146 148.323C136.117 147.088 139.735 144.441 140.352 140.382C140.617 139.147 140.264 138.088 139.646 137.029C136.735 131.559 134.97 125.294 135.411 119.118C135.411 118.676 136.029 118.676 136.029 119.118Z" fill="black"/>
<path d="M71.5296 128.559C69.5001 123.353 65.0884 118.412 59.1766 118.5C58.6472 118.412 57.7649 118.588 57.2354 118.588C55.7354 118.676 54.5001 119.206 53.3531 120.265C47.706 125.912 48.6766 135.882 53.2649 142.147C54.8531 144.353 56.8825 146.294 59.1766 147.882C61.4707 149.471 64.0296 150.706 66.7649 151.765C67.3825 151.941 67.1178 152.912 66.5002 152.823C60.5884 151.588 54.9413 148.676 51.059 143.823C45.059 136.588 43.8237 124.5 50.9707 117.441C52.559 116.029 54.7649 114.971 56.9707 114.971C57.6766 114.971 58.7354 114.794 59.4413 114.971C63.1472 115.147 66.6766 117 68.9707 119.912C71.0001 122.382 72.1472 125.382 72.5001 128.382C72.5001 128.912 71.706 129.088 71.5296 128.559Z" fill="black"/>
<path d="M129.324 158.294C123.677 163.677 113.001 159.353 110.177 152.824C109.824 152.03 110.706 151.324 111.412 151.677C112.912 152.471 114.236 153.265 115.648 153.883C119.706 155.736 123.942 157.236 128.442 156.794C129.324 156.618 129.942 157.677 129.324 158.294Z" fill="black"/>
<path d="M107.264 121.853C107.264 121.941 107.264 122.03 107.264 122.03L107.176 124.5C107.087 126.618 105.323 128.206 103.205 128.118C101.087 128.029 99.499 126.177 99.6755 124.147L99.7637 121.677C99.7637 121.235 99.9402 120.706 100.117 120.353L107.176 120.706C107.176 121.059 107.264 121.412 107.264 121.853Z" fill="black"/>
<path d="M144.146 123.794L144.058 126.088C143.969 128.03 142.293 129.53 140.352 129.441C138.411 129.353 136.911 127.677 136.999 125.735L137.087 123.441C137.087 123 137.175 122.559 137.352 122.206L143.969 122.471C144.058 122.912 144.146 123.353 144.146 123.794Z" fill="black"/>
<path d="M116.087 109.765C118.029 110.029 119.529 108 118.823 106.059C118.47 105 117.852 104.029 116.881 103.412C113.881 101.559 102.676 101.382 96.7638 105.618C91.4697 109.5 107.264 108.529 116.087 109.765Z" fill="black"/>
<path d="M140.529 110.735C138.941 110.735 137.97 108.706 138.764 107.03C139.205 106.147 139.823 105.353 140.705 104.912C143.441 103.588 150.764 104.382 154.029 108.882C156.941 112.853 147.852 110.647 140.529 110.735Z" fill="black"/>
<path d="M112.91 121.853L98.3515 121.588C96.5868 121.5 96.6751 118.853 98.4398 118.941L112.999 120C114.234 120.088 114.146 121.853 112.91 121.853Z" fill="black"/>
<path d="M147.853 123.353L137.088 123.529C135.323 123.529 135.235 120.971 137 120.882C137.088 120.882 137.088 120.882 137.176 120.882L147.941 122.029C148.735 122.118 148.647 123.265 147.853 123.353Z" fill="black"/>
<path d="M161.264 73.1472C162.941 68.2942 162.235 62.1178 156.499 54.353C136.999 28.0589 74.1759 38.2942 74.1759 38.2942C74.1759 38.2942 80.7936 40.0589 88.2936 43.6766C67.1171 41.8236 52.0288 46.4119 38.5288 45.0001C38.5288 45.0001 44.6171 52.0589 58.5583 57.7942C44.8818 62.8236 33.8524 74.1178 24.1465 99.3531C24.1465 99.3531 30.7641 95.206 41.6171 91.5001C35.3524 114.706 43.9112 132.353 50.2641 143.382C54.0583 150.265 56.1759 153.353 58.9112 158.206C62.7053 165 64.823 171.971 64.823 171.971C65.7053 156.265 63.5877 151.324 63.5877 151.324C41.5288 142.853 45.4994 118.235 56.2641 116.824C67.5583 115.412 71.0877 125.471 71.7053 127.941C73.823 125.471 71.8818 116.03 72.2347 106.412C73.823 131.824 87.8524 157.059 87.8524 157.059C87.8524 157.059 84.323 99.8825 97.9112 88.2354C98.1759 87.9707 98.5288 87.706 98.7936 87.5295C95.8818 104.118 103.294 111.53 103.294 111.53C103.823 95.206 107.794 87.4413 112.823 84.353C117.147 85.6766 121.646 87.2648 126.588 88.5001C129.323 89.206 132.235 89.8236 135.323 90.2648C135.852 90.3531 136.382 90.3531 136.911 90.3531C142.647 90.3531 148.117 86.5589 152.264 87.2648C153.676 87.5295 154.735 88.5883 155.176 90.0001C155.529 91.3236 155.882 92.6472 156.235 94.0589C157.647 100.324 160.911 150.618 161.441 145.941C163.117 133.059 193.647 90.0883 161.264 73.1472Z" fill="black"/>
<path d="M142.295 160.764C135.854 161.823 132.589 158.117 131.354 156.353C129.148 160.764 123.854 164.559 113.265 162.706C99.5007 160.323 99.3242 147.882 99.3242 147.882C103.648 152.47 109.207 149.029 116.883 146.206C125.971 142.941 130.118 146.029 131.53 147.794C131.707 147.617 133.648 149.823 137.618 145.676C138.501 144.794 140.089 146.382 141.412 147.529C145.824 151.588 147.942 152.117 149.53 149.735C149.53 149.823 149.883 159.529 142.295 160.764Z" fill="black"/>
</svg>
