<svg width="321" height="60" viewBox="0 0 321 60" fill="none" xmlns="http://www.w3.org/2000/svg">
<path d="M46.1233 46.0398H34.7237V22.7656H46.1233V46.0398ZM35.1987 34.0227L35.2937 36.3026C35.1987 36.9676 34.882 37.7434 34.3437 38.6301C33.8371 39.5167 33.1246 40.435 32.2063 41.385C31.288 42.3349 30.1639 43.2216 28.8339 44.0449C27.504 44.8365 25.984 45.4856 24.2741 45.9923C22.5641 46.4989 20.6642 46.7523 18.5743 46.7523C16.4844 46.7523 14.5053 46.5306 12.637 46.0873C10.7687 45.6756 9.10629 44.979 7.64968 43.9974C6.19306 43.0157 5.0531 41.7016 4.2298 40.055C3.4065 38.3767 2.99484 36.2868 2.99484 33.7852V22.7656H14.3944V32.5978C14.3944 34.3394 14.6794 35.6852 15.2494 36.6351C15.851 37.5851 16.7852 38.2501 18.0518 38.6301C19.3184 38.9784 20.9492 39.1525 22.9441 39.1525C24.8124 39.1525 26.5382 38.8834 28.1214 38.3451C29.7364 37.7751 31.1455 37.0943 32.3488 36.3026C33.5837 35.511 34.5337 34.751 35.1987 34.0227ZM50.4004 22.7656H61.7999V46.0398H50.4004V22.7656ZM78.8993 22.0532C80.7676 22.0532 82.5725 22.259 84.3141 22.6706C86.0557 23.0506 87.6073 23.7156 88.969 24.6656C90.3622 25.6155 91.4705 26.9138 92.2938 28.5604C93.1171 30.207 93.5288 32.2811 93.5288 34.7827V46.0398H82.1292V36.2077C82.1292 33.8327 81.5117 32.1545 80.2768 31.1728C79.0418 30.1595 76.8094 29.6529 73.5795 29.6529C71.8696 29.6529 70.2071 29.8429 68.5922 30.2229C67.0089 30.6029 65.584 31.062 64.3174 31.6003C63.0507 32.107 62.0533 32.6136 61.325 33.1203L61.23 31.3153C61.3566 30.7453 61.7841 29.9537 62.5124 28.9404C63.2724 27.8955 64.3648 26.8505 65.7898 25.8055C67.2147 24.7606 69.0038 23.8739 71.1571 23.1456C73.342 22.4173 75.9228 22.0532 78.8993 22.0532ZM110.058 22.0532C111.926 22.0532 113.731 22.259 115.473 22.6706C117.215 23.0506 118.766 23.7156 120.128 24.6656C121.521 25.6155 122.629 26.9138 123.453 28.5604C124.276 30.207 124.688 32.2811 124.688 34.7827V46.0398H113.288V36.2077C113.288 33.8327 112.671 32.1545 111.436 31.1728C110.201 30.1595 107.968 29.6529 104.738 29.6529C103.028 29.6529 101.366 29.8429 99.7511 30.2229C98.1678 30.6029 96.7428 31.062 95.4762 31.6003C94.2096 32.107 93.2121 32.6136 92.4838 33.1203L92.3888 30.8403C92.5155 30.3654 92.9905 29.6529 93.8138 28.7029C94.6371 27.753 95.7929 26.7713 97.2812 25.758C98.8011 24.7447 100.622 23.8739 102.743 23.1456C104.897 22.4173 107.335 22.0532 110.058 22.0532ZM146.218 46.7048C142.799 46.7048 139.759 46.2298 137.099 45.2798C134.439 44.2982 132.333 42.8891 130.782 41.0525C129.262 39.2159 128.502 36.9993 128.502 34.4027C128.502 31.6795 129.262 29.3996 130.782 27.563C132.333 25.7264 134.439 24.3489 137.099 23.4306C139.759 22.5123 142.799 22.0532 146.218 22.0532C150.018 22.0532 153.296 22.5756 156.051 23.6206C158.837 24.6339 160.975 26.0747 162.463 27.9429C163.983 29.7795 164.743 31.9328 164.743 34.4027C164.743 36.2393 164.315 37.9176 163.46 39.4375C162.605 40.9258 161.37 42.2241 159.755 43.3324C158.141 44.409 156.193 45.2482 153.913 45.8498C151.633 46.4198 149.068 46.7048 146.218 46.7048ZM150.493 39.485C152.9 39.485 155.101 39.3425 157.096 39.0575C159.122 38.7409 160.737 38.2184 161.94 37.4901C163.175 36.7618 163.793 35.7327 163.793 34.4027C163.793 33.0411 163.175 31.9961 161.94 31.2678C160.737 30.5395 159.122 30.0329 157.096 29.7479C155.101 29.4629 152.9 29.3204 150.493 29.3204C147.263 29.3204 144.762 29.7479 142.989 30.6029C141.215 31.4262 140.329 32.6928 140.329 34.4027C140.329 35.511 140.725 36.4451 141.516 37.2051C142.308 37.9651 143.464 38.5351 144.984 38.9151C146.503 39.295 148.34 39.485 150.493 39.485ZM163.793 22.7656H175.192V46.0398H164.458C164.458 46.0398 164.394 45.6756 164.268 44.9473C164.173 44.219 164.062 43.1741 163.935 41.8124C163.84 40.4508 163.793 38.8517 163.793 37.0151V22.7656ZM179.49 22.7656H190.89V46.0398H179.49V22.7656ZM207.989 22.0532C209.857 22.0532 211.662 22.259 213.404 22.6706C215.145 23.0506 216.697 23.7156 218.059 24.6656C219.452 25.6155 220.56 26.9138 221.383 28.5604C222.207 30.207 222.618 32.2811 222.618 34.7827V46.0398H211.219V36.2077C211.219 33.8327 210.601 32.1545 209.366 31.1728C208.131 30.1595 205.899 29.6529 202.669 29.6529C200.959 29.6529 199.297 29.8429 197.682 30.2229C196.098 30.6029 194.674 31.062 193.407 31.6003C192.14 32.107 191.143 32.6136 190.415 33.1203L190.32 31.3153C190.446 30.7453 190.874 29.9537 191.602 28.9404C192.362 27.8955 193.454 26.8505 194.879 25.8055C196.304 24.7606 198.093 23.8739 200.247 23.1456C202.432 22.4173 205.012 22.0532 207.989 22.0532ZM239.148 22.0532C241.016 22.0532 242.821 22.259 244.563 22.6706C246.304 23.0506 247.856 23.7156 249.217 24.6656C250.611 25.6155 251.719 26.9138 252.542 28.5604C253.366 30.207 253.777 32.2811 253.777 34.7827V46.0398H242.378V36.2077C242.378 33.8327 241.76 32.1545 240.525 31.1728C239.29 30.1595 237.058 29.6529 233.828 29.6529C232.118 29.6529 230.456 29.8429 228.841 30.2229C227.257 30.6029 225.832 31.062 224.566 31.6003C223.299 32.107 222.302 32.6136 221.573 33.1203L221.478 30.8403C221.605 30.3654 222.08 29.6529 222.903 28.7029C223.727 27.753 224.882 26.7713 226.371 25.758C227.891 24.7447 229.711 23.8739 231.833 23.1456C233.986 22.4173 236.425 22.0532 239.148 22.0532ZM270.606 10.5586V17.6833H258.541V10.5586H270.606ZM258.874 22.7656H270.273V46.0398H258.874V22.7656ZM275.368 22.7656H286.767V46.0398H275.368V22.7656ZM303.867 22.0532C305.735 22.0532 307.54 22.259 309.282 22.6706C311.023 23.0506 312.575 23.7156 313.936 24.6656C315.33 25.6155 316.438 26.9138 317.261 28.5604C318.085 30.207 318.496 32.2811 318.496 34.7827V46.0398H307.097V36.2077C307.097 33.8327 306.479 32.1545 305.244 31.1728C304.009 30.1595 301.777 29.6529 298.547 29.6529C296.837 29.6529 295.175 29.8429 293.56 30.2229C291.976 30.6029 290.551 31.062 289.285 31.6003C288.018 32.107 287.021 32.6136 286.292 33.1203L286.197 31.3153C286.324 30.7453 286.752 29.9537 287.48 28.9404C288.24 27.8955 289.332 26.8505 290.757 25.8055C292.182 24.7606 293.971 23.8739 296.125 23.1456C298.309 22.4173 300.89 22.0532 303.867 22.0532Z" fill="#6E6E6E"/>
<path d="M274.762 7.83676C274.437 7.08423 273.969 6.40229 273.383 5.82913C272.796 5.25425 272.105 4.79741 271.346 4.48344C270.559 4.15657 269.715 3.98927 268.863 3.99123C267.668 3.99123 266.501 4.31856 265.488 4.93685C265.245 5.08475 265.015 5.24721 264.797 5.42421C264.579 5.24721 264.348 5.08475 264.106 4.93685C263.092 4.31856 261.926 3.99123 260.731 3.99123C259.87 3.99123 259.036 4.15611 258.248 4.48344C257.486 4.79864 256.8 5.25206 256.211 5.82913C255.624 6.40165 255.156 7.08374 254.831 7.83676C254.494 8.61993 254.322 9.45159 254.322 10.3075C254.322 11.1149 254.487 11.9563 254.814 12.8122C255.088 13.5275 255.481 14.2694 255.983 15.0186C256.778 16.2043 257.872 17.4409 259.23 18.6944C261.48 20.7724 263.708 22.2078 263.803 22.266L264.377 22.6345C264.632 22.797 264.959 22.797 265.214 22.6345L265.789 22.266C265.883 22.2054 268.109 20.7724 270.361 18.6944C271.719 17.4409 272.813 16.2043 273.608 15.0186C274.11 14.2694 274.505 13.5275 274.777 12.8122C275.104 11.9563 275.269 11.1149 275.269 10.3075C275.271 9.45159 275.099 8.61993 274.762 7.83676Z" fill="#6E6E6E"/>
</svg>
